<svg width="170" height="44" viewBox="0 0 170 44" fill="none" xmlns="http://www.w3.org/2000/svg">
<path d="M169.43 17.2159C164.902 17.2159 160.373 17.2159 155.845 17.3417C154.839 17.3417 153.832 17.5933 152.952 17.9707C150.436 19.1028 149.681 21.4928 149.681 24.0086C149.681 30.0466 149.681 35.9588 149.681 41.9967C149.681 43.3804 149.681 43.3804 148.297 43.3804C143.14 43.3804 137.857 43.3804 132.699 43.3804C131.693 43.3804 131.316 43.1288 131.316 41.9967C131.316 34.9524 131.316 27.9082 131.316 20.9897C131.316 11.9327 136.347 4.76265 144.775 1.49209C146.536 0.863141 148.297 0.611561 150.184 0.108398H169.43V17.2159Z" fill="#0082C2"/>
<path d="M24.0162 0.108398C26.2805 2.62421 28.6705 5.14003 30.9347 7.65584C34.5826 11.6811 38.2306 15.5807 41.6269 19.8575C44.6459 23.7571 46.0296 28.4113 46.1554 33.4429C46.1554 36.8393 46.1554 40.2356 46.1554 43.632H26.532C26.532 40.613 26.532 37.4683 26.532 34.3235C26.532 30.424 25.3999 26.776 22.8841 23.8828C20.3683 20.9897 17.7267 18.0965 15.0851 15.2033C11.5629 11.4296 8.0408 7.78163 4.51866 4.00791C3.26075 2.75 2.00284 1.61789 0.870728 0.359981C1.12231 0.23419 1.37389 0.108398 1.75126 0.108398C9.17292 0.108398 16.5946 0.108398 24.0162 0.108398Z" fill="#0082C2"/>
<path d="M79.8672 43.632V0.108398H100.749C100.749 0.485771 100.623 0.863142 100.623 1.11472C100.623 14.8259 100.623 28.5371 100.623 42.3741C100.623 42.7515 100.623 43.1288 100.749 43.5062H79.8672V43.632Z" fill="#0082C2"/>
<path d="M71.8167 0.108398C69.0493 3.12738 66.2819 6.02057 63.5145 9.03954C58.9861 13.8196 54.4576 18.5996 49.9291 23.5055C49.1744 24.386 48.5454 25.3923 47.7907 26.3987C46.5328 20.1091 42.5075 15.5807 38.2306 11.0522C41.6269 7.40426 44.8975 3.75633 48.1681 0.234187H71.8167V0.108398Z" fill="#0082C2"/>
<path d="M131.693 0.108398C133.58 0.611561 135.467 1.11473 137.228 1.61789C137.479 1.61789 137.605 1.74368 137.983 1.99526C131.819 6.02056 129.177 11.9327 128.548 18.7254C125.026 18.7254 121.63 18.7254 118.234 18.7254C116.472 18.7254 114.711 18.7254 112.95 18.7254C112.07 18.7254 111.944 18.4738 111.944 17.5933C111.944 11.8069 111.944 5.89477 111.944 0.108398H131.693Z" fill="#0082C2"/>
</svg>
