<svg width="136" height="60" viewBox="0 0 136 60" fill="none" xmlns="http://www.w3.org/2000/svg">
<path d="M0.430298 0.505859H58.8641C58.8641 0.709817 58.8641 0.811796 58.8641 1.01575C58.8641 3.46324 58.8641 5.80876 58.8641 8.25625C58.8641 8.66416 58.7621 8.86812 58.3542 8.86812C57.3344 8.86812 56.3147 8.86812 55.1929 8.86812C55.0909 8.86812 54.8869 8.86812 54.683 8.86812V4.78897H4.7134V54.7586H54.785V54.0447C54.785 48.9458 54.785 43.8468 54.785 38.7479C54.785 38.34 54.8869 38.136 55.3968 38.136C56.4166 38.136 57.4364 38.136 58.5582 38.136C58.8641 38.136 59.0681 38.238 59.0681 38.6459C59.0681 45.2745 59.0681 51.9031 59.0681 58.5318C59.0681 58.9397 58.9661 59.0417 58.5582 59.0417C58.4562 59.0417 58.4562 59.0417 58.3542 59.0417C39.2842 59.0417 20.3162 59.0417 1.24613 59.0417C0.532277 59.0417 0.532277 59.0417 0.532277 58.3278C0.532277 39.3598 0.532277 20.3917 0.532277 1.42367V0.505859H0.430298Z" fill="#C20014"/>
<path d="M77.7302 33.9542C77.0164 33.9542 76.3025 33.9542 75.6906 33.9542C75.5887 33.9542 75.3847 33.7502 75.2827 33.6482C75.0788 33.1383 74.8748 32.5265 74.6708 32.0166C73.753 33.1383 72.6313 33.8522 71.3055 34.1581C67.0224 34.9739 63.6571 33.2403 62.1275 29.0592C61.0057 25.9998 61.1077 22.9405 62.3314 19.8811C63.6571 16.5158 66.6145 14.7822 70.1838 14.8841C71.4075 14.8841 72.6313 15.0881 73.753 15.598C75.8946 16.6178 77.0164 18.3514 77.5262 20.6969C77.6282 21.0029 77.6282 21.3088 77.6282 21.6147H73.3451C73.2431 21.3088 73.2431 21.0029 73.0392 20.6969C72.6313 19.4732 71.8154 18.5554 70.4897 18.3514C69.062 18.1475 67.9402 18.6573 67.1244 19.7791C66.5125 20.5949 66.3086 21.5128 66.2066 22.4306C66.0026 24.3682 65.9007 26.3058 66.5125 28.1414C67.0224 30.079 68.5521 31.2007 70.3877 31.0988C72.4273 30.9968 73.753 29.2631 73.4471 27.2236H69.7759V24.0622H77.7302V33.9542Z" fill="black"/>
<path d="M9.50629 27.9386H13.6874C14.7072 30.3861 16.8488 31.4058 19.3982 30.692C19.6022 30.59 19.8061 30.59 20.0101 30.488C21.2338 29.7742 21.3358 28.1425 20.1121 27.4287C19.2962 27.0208 18.3784 26.7148 17.4606 26.4089C16.2369 26.001 14.9112 25.695 13.6874 25.2871C12.0558 24.6752 10.832 23.4515 10.5261 21.6159C10.0162 18.6585 11.5459 16.211 14.4013 15.2932C16.5428 14.5793 18.6844 14.5793 20.7239 15.2932C23.1714 16.0071 24.9051 18.1486 24.9051 20.5961C24.8031 20.5961 24.5991 20.5961 24.4972 20.5961C23.7833 20.5961 23.0695 20.5961 22.3556 20.5961C21.6418 20.5961 21.1319 20.5961 20.8259 19.7803C20.316 18.6585 19.1943 18.2506 18.0725 18.2506C17.4606 18.2506 16.8488 18.2506 16.2369 18.4545C15.523 18.6585 15.0131 19.1684 14.9112 19.9842C14.8092 20.8001 15.2171 21.4119 15.9309 21.6159C16.9507 22.0238 18.0725 22.3297 19.1943 22.6357C20.2141 22.9416 21.2338 23.1456 22.2536 23.6555C24.1912 24.4713 25.5169 25.797 25.6189 28.0405C25.7209 30.2841 24.8031 32.0177 22.8655 33.2415C21.4378 34.1593 19.7042 34.4652 17.9705 34.5672C16.0329 34.5672 14.0953 34.2612 12.3617 33.1395C10.73 32.1197 9.81222 30.59 9.50629 28.7544C9.50629 28.3465 9.50629 28.1425 9.50629 27.9386Z" fill="black"/>
<path d="M125.762 26.8156C125.762 27.6314 125.762 28.3453 125.762 29.1611C125.762 29.365 125.864 29.467 125.864 29.671C126.17 30.7927 126.884 31.4046 127.904 31.4046C128.924 31.5066 129.739 30.9967 130.147 29.8749C130.759 27.9373 130.759 25.8978 130.147 23.9602C129.943 23.2463 129.433 22.6345 128.618 22.4305C127.19 22.0226 125.864 23.0424 125.762 24.572C125.66 25.3879 125.762 26.1017 125.762 26.8156ZM125.762 32.4244V35.3818V38.4412H121.683V19.881H125.456V21.8186C126.17 20.9008 126.986 20.187 128.006 19.881C130.555 18.9632 133.105 19.983 134.124 22.4305C135.45 25.3879 135.348 28.4472 133.92 31.4046C132.799 33.6482 130.351 34.6679 128.108 33.9541C127.088 33.7501 126.374 33.2402 125.762 32.4244Z" fill="black"/>
<path d="M36.8368 25.3889C36.8368 23.4513 35.613 22.2276 33.8794 22.4315C32.5536 22.5335 31.4319 23.6553 31.5339 25.3889H36.8368ZM41.1199 27.7344H31.6358C31.3299 29.0601 32.1457 30.7938 33.3695 31.2017C34.8992 31.8136 36.2249 31.0997 37.1427 29.2641H40.9159C40.8139 29.57 40.8139 29.774 40.7119 29.9779C39.8961 32.1195 38.2645 33.5472 36.0209 34.0571C34.5932 34.363 33.1655 34.363 31.7378 33.8531C29.6982 33.2413 28.3725 31.9155 27.5567 29.876C26.8428 27.9384 26.8428 25.8988 27.5567 24.0632C28.6785 21.0038 31.4319 19.3721 34.6952 19.6781C38.3664 19.984 40.8139 22.5335 41.0179 26.1027C41.1199 26.6126 41.1199 27.2245 41.1199 27.7344Z" fill="black"/>
<path d="M118.522 33.9549H114.749V31.6094C114.443 32.0173 114.239 32.3232 114.035 32.6292C112.913 34.0569 110.873 34.6687 109.038 34.0569C107.406 33.547 106.182 32.1193 106.08 30.1817C105.978 27.1223 105.978 23.961 105.978 20.9016C105.978 20.5957 105.978 20.2898 105.978 19.8818H110.159V20.3917C110.159 23.0432 110.159 25.5926 110.159 28.2441C110.159 28.55 110.159 28.9579 110.261 29.2639C110.363 30.0797 110.669 30.6916 111.587 30.9975C112.505 31.2015 113.219 30.8955 113.831 30.2837C114.443 29.6718 114.545 28.856 114.545 28.0401C114.545 25.5926 114.545 23.0432 114.545 20.5957V19.9838H118.624V33.9549H118.522Z" fill="black"/>
<path d="M94.3527 26.9195C94.3527 27.4294 94.3527 27.9393 94.4546 28.4491C94.5566 28.959 94.6586 29.4689 94.7606 29.8769C95.1685 30.9986 95.9843 31.5085 97.0041 31.5085C98.0239 31.5085 98.8397 30.8966 99.1457 29.8769C99.3496 29.163 99.4516 28.3472 99.5536 27.6333C99.6556 26.4096 99.6556 25.1858 99.0437 24.0641C98.7378 23.3502 98.3298 22.8403 97.514 22.6364C96.2903 22.3304 95.2705 22.8403 94.6586 24.0641C94.4547 24.8799 94.3527 25.8997 94.3527 26.9195ZM104.041 26.7155C103.939 29.6729 103.021 31.9164 100.471 33.3441C95.9843 35.8936 90.5795 33.0382 90.0696 27.9393C89.8656 25.5937 90.2735 23.5542 91.8032 21.8205C93.7408 19.679 96.0863 19.1691 98.7378 19.8829C101.389 20.4948 102.919 22.3304 103.633 24.8799C103.939 25.5937 103.939 26.2056 104.041 26.7155Z" fill="black"/>
<path d="M44.3831 22.8381H42.2416V19.8808H44.3831C44.4851 18.4531 44.6891 17.0254 44.791 15.5977H48.5643V19.8808H51.4197V22.8381H48.5643V24.3678C48.5643 25.9995 48.5643 27.6311 48.5643 29.2628C48.5643 30.6905 49.0742 31.0984 50.5019 31.0984C50.9098 31.0984 51.3177 31.0984 51.8276 31.0984C51.8276 31.2004 51.8276 31.3024 51.8276 31.4044C51.8276 32.2202 51.8276 33.138 51.8276 34.0558C50.0939 34.2598 48.4623 34.5657 46.7286 33.9538C45.4029 33.4439 44.5871 32.4241 44.5871 30.8945C44.4851 28.549 44.5871 26.1015 44.4851 23.756C44.3831 23.45 44.3831 23.1441 44.3831 22.8381Z" fill="black"/>
<path d="M58.9662 13.0488H54.785V33.9545H58.9662V13.0488Z" fill="black"/>
<path d="M80.7896 33.9535V19.8804H84.3588V22.4299C85.1746 20.3903 86.7043 19.3705 88.9479 19.6765V23.4497C88.7439 23.4497 88.438 23.4497 88.234 23.4497C86.2964 23.4497 84.9707 24.6734 84.9707 26.5091C84.8687 28.5486 84.9707 30.4862 84.8687 32.5258C84.8687 33.0357 84.8687 33.4436 84.8687 33.9535H80.7896Z" fill="black"/>
</svg>
