<svg width="185" height="61" viewBox="0 0 185 61" fill="none" xmlns="http://www.w3.org/2000/svg">
<path d="M61.6817 0.407227H0.0581665V60.1553H61.6817V0.407227Z" fill="#E32412"/>
<path d="M122.769 0.405273H63.2893V60.1534H122.769V0.405273Z" fill="#E32412"/>
<path d="M184.929 0.405273H124.243V60.1534H184.929V0.405273Z" fill="#E32412"/>
<path d="M4.34503 18.0889H27.6548V25.8588H22.4302V23.3135H16.8037V27.4664H21.4925V32.9589H16.8037V38.0495H19.617V43.4081H4.34503V38.1835H6.62242V23.8493H4.34503V18.0889Z" fill="white"/>
<path d="M88.8765 38.0487L84.4557 23.3127H87.269V17.9541H68.246V23.3127H70.9253L66.1026 37.9148H65.0309V43.2733H75.0782V38.0487H72.5329L73.0687 35.2355H79.633L80.1689 38.0487H77.7575V43.2733H91.5558V38.0487H88.8765ZM74.1405 30.9486L76.8197 23.8485L79.3651 30.9486H74.1405Z" fill="white"/>
<path d="M93.5653 18.0889H103.613L113.526 30.4136V23.4474H111.249V18.0889H121.296V23.3135H119.42V43.4081H111.249L101.871 30.0117V38.0495H104.148V43.4081H93.5653V38.0495H95.5748V23.3135H93.5653V18.0889Z" fill="white"/>
<path d="M125.583 18.0889H140.453V22.9116H138.041V29.0739L144.204 22.9116H142.328V18.0889H154.251V22.7776H152.51L145.811 30.0117L153.447 37.6477H156.261V43.4081H142.194V38.0495H144.606L138.309 31.3513V38.0495H140.319V43.4081H125.583V38.0495H128.396V23.3135H125.583V18.0889Z" fill="white"/>
<path d="M157.6 18.0889H181.044V25.7248H175.283V22.7776H170.059V28.1362H174.48V32.8249H170.059V37.6477H175.283V34.7004H181.044V43.4081H157.6V37.6477H160.547V22.7776H157.6V18.0889Z" fill="white"/>
<path d="M57.5288 38.0495L53.7778 30.6815C53.7778 30.6815 58.0647 28.2701 57.7968 25.189C57.2609 18.6247 48.4193 18.0889 48.4193 18.0889H30.0662V23.8493H32.8794V38.1835H30.4681V43.4081H45.3381V38.0495H42.9267V32.8249H45.74L50.1608 43.2741H60.0742V38.0495H57.5288ZM43.0607 29.0739V23.4474C43.0607 23.4474 47.7494 23.3135 47.7494 26.2607C47.7494 29.2079 43.0607 29.0739 43.0607 29.0739Z" fill="white"/>
</svg>
