<svg width="118" height="84" viewBox="0 0 118 84" fill="none" xmlns="http://www.w3.org/2000/svg">
<path d="M59.0615 77.6771C65.1131 77.7674 71.1647 77.4062 77.1259 76.3223C83.7195 75.0578 90.1323 73.2513 96.0033 69.8191C101.965 66.2965 106.661 61.5998 109.461 55.1869C112.532 47.9611 113.074 40.4644 111.629 32.8773C110.545 26.916 107.926 21.7677 103.5 17.5225C98.0807 12.3741 91.3968 9.57416 84.2614 7.85803C77.9388 6.32256 71.6163 5.59998 65.1131 5.23869C57.9776 4.8774 50.8422 5.14837 43.7067 5.96127C37.2938 6.77417 30.9713 8.129 25.01 10.7483C17.7842 13.9096 12.0036 18.5161 8.66168 25.8322C5.59073 32.516 5.0488 39.5611 6.22299 46.7869C7.39717 54.4643 10.8294 60.8772 16.7004 65.9352C21.1262 69.7288 26.1842 72.2578 31.6035 73.9739C40.5454 76.8642 49.7583 77.7674 59.0615 77.6771ZM0.261719 40.4644C0.352041 34.6837 1.34559 29.0838 3.69396 23.8451C6.85524 16.7999 12.0036 11.6516 18.6875 7.94836C23.2036 5.41933 27.9906 3.61289 32.9584 2.52902C37.2035 1.6258 41.539 0.8129 45.9648 0.541934C52.1067 0.0903226 58.3389 0 64.5711 0C70.5324 0 76.4034 0.8129 82.184 1.89677C87.1517 2.89031 91.9388 4.33547 96.4549 6.41288C106.029 10.8387 112.894 17.8838 115.964 28.0902C117.41 32.9676 117.952 38.0257 117.59 43.2643C117.229 48.8643 116.145 54.1933 113.526 59.1611C112.261 61.4191 110.906 63.6772 109.281 65.7546C105.397 70.5417 100.429 73.9739 94.9194 76.5933C89.771 79.032 84.3517 80.5674 78.7517 81.561C71.6163 82.9158 64.3905 83.2771 57.1647 83.1868C47.139 83.0061 37.2938 81.8319 27.7197 78.3094C20.8552 75.7803 14.7133 72.0771 9.74555 66.5675C5.0488 61.4191 2.24881 55.2772 1.16494 48.4127C0.623008 45.7934 0.532685 43.174 0.261719 40.4644Z" fill="#ED631F"/>
<path d="M67.4614 14.1801C67.4614 14.8123 67.4614 15.2639 67.4614 15.8059C67.4614 20.5026 67.4614 25.1994 67.4614 29.9865C67.4614 31.1607 67.1001 31.5219 66.0163 31.4316C64.8421 31.3413 63.6679 31.4316 62.4937 31.4316C61.7711 31.4316 61.4098 31.0703 61.4098 30.3478C61.4098 23.8446 61.4098 17.3414 61.5002 10.9285C61.5002 8.76074 62.7647 7.58655 64.9324 7.7672C69.5388 8.30913 74.055 8.94139 78.5711 9.84461C84.8936 11.1091 90.8549 13.5478 96.5452 16.4381C98.8936 17.7026 101.061 19.3284 101.874 21.9478C102.777 24.7478 102.777 27.6381 102.055 30.5284C101.874 31.251 101.242 31.7929 100.79 32.4252C100.248 33.0574 99.6161 33.5994 98.9839 34.2316C97.2678 35.9477 97.1774 35.9477 98.9839 37.7542C102.687 41.4574 103.5 45.9735 102.958 51.0315C102.777 52.9283 102.958 54.8251 102.777 56.7218C102.687 58.167 102.506 59.6122 102.055 60.967C101.603 62.6831 100.429 64.0379 98.8032 64.9412C90.4033 69.8186 81.3711 73.0702 71.7066 74.3347C67.2808 74.9669 62.855 75.5089 58.3389 75.5992C49.5776 75.6895 40.9067 74.7863 32.597 71.8057C30.2487 70.9928 27.9906 69.9992 25.7326 69.0057C25.3713 68.825 25.01 68.3734 24.9197 68.1024C24.8293 66.296 24.9197 64.4896 24.9197 62.4121C25.9132 62.9541 26.6358 63.3154 27.3584 63.6767C32.4164 66.3863 37.8357 68.1928 43.4357 69.2766C49.7583 70.5411 56.0808 70.7218 62.4937 70.2702C66.3776 69.9992 70.1711 69.2766 73.9646 68.5541C80.0162 67.4702 85.6162 65.3928 91.1259 62.6831C92.571 61.9605 94.0162 61.1476 95.371 60.2444C95.8226 59.9734 96.1839 59.2509 96.1839 58.7089C96.2742 53.6509 96.2742 48.6832 96.1839 43.6251C96.1839 43.0832 95.9129 42.5413 95.5516 42.18C94.1968 40.7348 92.6613 39.4703 91.2162 38.0251C89.5904 36.3993 89.5904 35.4961 91.2162 33.9606C92.6613 32.6058 94.0162 31.251 95.4613 29.9865C96.9065 28.6316 96.5452 23.3929 94.9194 22.3091C90.5839 19.2381 85.7065 17.3414 80.6485 16.2575C76.4937 15.3543 72.2485 14.8123 68.0937 14.0898C67.913 14.0898 67.8227 14.1801 67.4614 14.1801Z" fill="#ED631F"/>
<path d="M22.8422 34.955C23.1132 34.8647 23.2938 34.955 23.2938 34.8647C30.8809 30.2583 39.2809 27.8196 48.0421 26.555C48.855 26.4647 49.126 26.1034 49.126 25.3809C49.126 22.4002 49.126 19.3293 49.126 16.3486C49.126 15.0841 48.6744 14.7228 47.5002 14.9938C45.4228 15.4454 43.3454 15.8067 41.268 16.2583C35.1261 17.6131 29.4358 19.7809 24.1971 23.3034C23.5648 23.7551 22.8422 24.4776 22.7519 25.1099C22.7519 28.3615 22.8422 31.6131 22.8422 34.955ZM16.5197 42.3614C16.5197 36.1292 16.5197 29.8066 16.5197 23.5744C16.5197 22.0389 16.9713 20.9551 18.2358 20.0518C23.7455 15.8067 29.9777 12.8261 36.6615 11.0196C41.268 9.84544 46.055 9.21318 50.7518 8.4906C53.4615 8.03899 55.0873 9.48415 55.0873 12.3745C55.1776 17.8841 55.1776 23.3034 55.0873 28.8131C55.0873 30.7099 54.2744 31.6131 52.2873 32.0647C48.855 32.7873 45.4228 33.2389 42.0809 34.0518C35.397 35.4969 29.1648 37.9356 23.6551 42.1808C22.8422 42.7227 22.7519 43.355 22.8422 44.0776C22.8422 50.4904 22.8422 56.9936 22.8422 63.4065C22.8422 65.1226 22.8422 65.1226 21.1261 64.942C17.0616 64.5807 16.61 64.1291 16.61 59.9743C16.5197 54.1033 16.5197 48.2324 16.5197 42.3614Z" fill="#ED631F"/>
<path d="M49.2163 52.0251C49.2163 47.238 49.3066 42.5412 49.2163 37.7542C49.2163 36.309 49.6679 35.8574 51.0228 36.038C52.0163 36.1284 53.1002 36.1284 54.184 36.038C55.2679 35.9477 55.6292 36.309 55.6292 37.3929C55.5389 41.4574 55.6292 45.5219 55.6292 49.5864C55.6292 53.1089 55.6292 56.6315 55.6292 60.1541C55.6292 61.1476 55.9002 61.5089 56.984 61.5089C61.5905 61.5992 61.5905 61.6895 61.5905 57.0831C61.5905 50.5799 61.5905 44.167 61.5905 37.6638C61.5905 36.3993 61.9517 35.8574 63.3066 35.9477C64.2098 36.038 65.2033 36.038 66.1969 35.9477C67.3711 35.8574 67.7324 36.309 67.7324 37.4832C67.642 44.7993 67.7324 52.2057 67.7324 59.5218C67.7324 61.5089 67.7324 61.5089 69.7195 61.5089C70.713 61.5089 71.0743 61.8702 70.984 62.8637C70.8936 64.2186 70.984 65.4831 70.984 66.8379C70.984 67.5605 70.713 67.8314 69.9001 67.8314C63.3969 67.8314 56.984 67.8314 50.4808 67.8314C49.3066 67.8314 49.397 67.1089 49.397 66.3863C49.126 61.6895 49.126 56.8121 49.2163 52.0251Z" fill="#ED631F"/>
<path d="M88.2355 56.0892C87.4226 57.6247 86.6097 59.0699 85.8871 60.6054C85.4355 61.6892 84.5323 61.4183 83.8097 61.3279C83.2678 61.2376 82.6355 60.8763 82.4549 60.4247C81.5517 58.6183 80.8291 56.8118 79.6549 55.0957C79.6549 55.9086 79.6549 56.7215 79.6549 57.5344C79.6549 59.7925 79.6549 61.9602 79.6549 64.2182C79.6549 65.1215 79.2936 65.5731 78.3904 65.4828C77.1259 65.3924 75.8614 65.3924 74.5968 65.4828C73.6936 65.4828 73.3323 65.1215 73.3323 64.2182C73.4227 62.2312 73.3323 60.3344 73.3323 58.3473C73.3323 51.9344 73.3323 45.5215 73.3323 39.0183C73.3323 37.8442 73.6936 37.3925 74.8678 37.4829C76.042 37.5732 77.2162 37.5732 78.3904 37.4829C79.2033 37.4829 79.6549 37.7538 80.0162 38.5667C81.371 42.3603 82.8162 46.0635 84.2613 49.857C84.3516 50.0377 84.442 50.2183 84.6226 50.6699C85.7065 48.4119 86.8807 46.5151 87.6936 44.4377C88.3258 42.9022 89.229 42.2699 90.8548 42.5409C91.8484 42.6312 92.8419 42.4506 93.8355 42.6312C94.1968 42.7216 94.7387 43.2635 94.7387 43.5345C94.829 48.5925 94.829 53.6505 94.7387 58.7989C94.7387 59.1602 94.1064 59.7021 93.8355 59.7021C92.4806 59.7925 91.0355 59.7021 89.5903 59.7925C88.7774 59.7925 88.4161 59.5215 88.5065 58.7086C88.5065 57.8957 88.5065 56.9925 88.5065 56.1796C88.5065 56.0892 88.4161 56.0892 88.2355 56.0892Z" fill="#ED631F"/>
<path d="M39.1905 51.3037C39.1905 49.0457 39.1905 46.878 39.1905 44.6199C39.1905 43.6264 38.9196 43.0844 37.7454 43.3554C36.5712 43.6263 35.3067 43.7167 34.1325 43.9876C31.6938 44.5296 29.9777 46.6973 29.8873 49.136C29.8873 51.0328 29.8873 52.9295 29.8873 54.8263C29.8873 57.265 31.6938 59.0714 34.1325 59.1618C35.3067 59.2521 36.3905 59.1618 37.5647 59.1618C38.7389 59.2521 39.1905 58.8005 39.1905 57.536C39.1002 55.5489 39.1905 53.3812 39.1905 51.3037ZM44.8808 51.2134C44.8808 53.5618 44.8808 55.9102 44.8808 58.2585C44.8808 61.6908 42.0808 64.6714 38.6486 64.6714C36.0293 64.6714 33.3196 64.7617 30.8809 64.0392C26.8164 62.7747 24.6486 59.5231 24.197 55.2779C23.9261 52.8392 23.9261 50.3102 24.3777 47.9618C25.3712 42.2715 28.9841 39.0199 34.6744 38.2973C36.3905 38.1167 38.197 37.8457 39.9131 38.0264C42.8034 38.478 44.8808 41.0973 44.8808 44.1683C44.8808 45.3425 44.8808 46.5167 44.8808 47.6909C44.8808 48.865 44.8808 50.0392 44.8808 51.2134Z" fill="#ED631F"/>
</svg>
