<svg width="151" height="68" viewBox="0 0 151 68" fill="none" xmlns="http://www.w3.org/2000/svg">
<path d="M71.5591 27.4913C72.6366 29.8618 75.9769 31.5858 78.8862 31.3703C82.442 31.0471 85.1358 28.5688 85.8901 25.2285C86.5366 22.1037 85.3513 19.0867 82.1188 16.8239C78.563 20.2719 75.1149 23.8277 71.5591 27.4913ZM80.6103 0.44564C80.9335 0.553392 81.149 0.661144 81.4723 0.661144C87.2908 2.16967 89.3381 9.06576 85.3513 13.4836C85.2436 13.5913 85.0281 13.8068 84.8126 14.0223C88.1529 16.8239 90.0924 20.2719 89.5536 24.7975C89.2304 27.7068 87.9374 30.0773 85.7823 32.1246C81.4723 36.0036 73.7141 36.5424 68.6498 29.9696C67.0336 31.6936 65.525 33.3098 63.9088 35.0339C62.939 33.9564 62.1847 33.0943 61.4305 32.2323C62.939 30.6161 64.663 28.892 66.387 27.2758C67.0336 26.737 67.1413 26.0905 66.9258 25.3362C66.8181 24.6897 66.8181 24.0432 66.7103 23.289C66.7103 20.2719 66.7103 17.2549 66.7103 14.1301H70.3739V23.0735C70.6971 22.7502 70.9126 22.6425 71.1281 22.427C74.8994 18.7634 78.563 14.9921 82.3343 11.3285C83.8428 9.92778 84.1661 8.3115 83.4118 6.58748C82.6575 4.86345 81.2568 4.00144 79.3172 4.00144C78.132 4.00144 77.0545 4.00144 75.7614 4.00144V7.23399H72.0979V0.337891H80.6103V0.44564Z" fill="#08402E"/>
<path d="M3.89114 47.2088V53.4584C6.26167 53.4584 8.52446 53.4584 10.7872 53.4584C11.1105 53.4584 11.5415 53.3506 11.8648 53.2429C13.3733 52.7041 14.2353 51.5188 14.1275 50.0103C14.0198 48.6096 13.05 47.4243 11.5415 47.3165C8.95546 47.101 6.47718 47.2088 3.89114 47.2088ZM3.78339 56.7987C3.78339 58.846 3.78339 60.7855 3.78339 62.725C3.78339 62.8328 4.10664 63.156 4.32215 63.156C6.80043 63.156 9.17097 63.156 11.6493 63.0483C13.481 62.9405 14.6663 61.6475 14.6663 59.9235C14.6663 58.1994 13.5888 56.9064 11.757 56.7987C9.06321 56.6909 6.47718 56.7987 3.78339 56.7987ZM0.012085 43.7607C3.56789 43.7607 7.23144 43.7607 10.7872 43.7607C11.9725 43.7607 13.1578 43.9762 14.2353 44.4072C16.4981 45.1615 17.7911 46.8855 17.8988 49.2561C18.0066 51.6266 17.0368 53.3506 14.9895 54.5359C14.8818 54.6436 14.6663 54.7514 14.4508 54.8591C14.6663 54.9669 14.774 55.0747 14.9895 55.1824C17.1446 56.0444 18.2221 57.6607 18.4376 59.9235C18.5453 62.1863 17.7911 63.9103 15.9593 65.2033C14.5585 66.1731 12.9423 66.6041 11.2182 66.6041C7.55469 66.6041 3.78339 66.6041 0.119836 66.6041V43.7607H0.012085Z" fill="#08402E"/>
<path d="M28.9972 54.9677C29.105 56.153 29.2127 57.015 29.4282 57.877C30.1825 61.2173 32.6608 63.3723 35.7856 63.5878C39.2336 63.8033 41.8196 62.0793 43.0049 58.8468C43.8669 56.4762 43.8669 53.9979 43.0049 51.6274C41.9274 48.6104 39.5569 46.9941 36.4321 46.9941C33.3073 46.9941 30.829 48.7181 29.8592 51.7352C29.3205 52.7049 29.2127 53.8902 28.9972 54.9677ZM34.9235 67.0359C34.277 66.8204 33.6305 66.7126 32.984 66.4971C28.674 65.2041 25.6569 61.4328 25.3337 56.6917C25.1182 54.429 25.3337 52.2739 26.0879 50.1189C27.9197 45.5933 32.3375 42.8995 37.4018 43.4383C42.5739 43.9771 46.2375 47.3174 47.2072 52.3817C47.746 55.291 47.5305 58.2003 46.2375 60.894C44.6212 64.2343 42.0351 66.2816 38.3716 66.9281C38.1561 66.9281 37.9406 67.0359 37.7251 67.1436H34.9235V67.0359Z" fill="#08402E"/>
<path d="M139.874 48.718C138.581 51.9505 137.395 55.0753 136.21 58.0924H143.537C142.352 54.9676 141.167 51.9505 139.874 48.718ZM150.864 66.6047C149.787 66.6047 148.601 66.6047 147.524 66.6047C146.985 66.6047 146.77 66.3892 146.554 65.8505C146.123 64.5574 145.584 63.3722 145.153 62.1869C144.938 61.6482 144.722 61.4326 144.184 61.4326C141.274 61.4326 138.473 61.4326 135.564 61.4326C135.025 61.4326 134.701 61.6482 134.594 62.0792C134.163 63.3722 133.624 64.5574 133.193 65.8505C132.977 66.2815 132.762 66.497 132.223 66.497C131.253 66.497 130.176 66.497 129.098 66.497C129.206 66.1737 129.314 65.9582 129.422 65.635C132.331 58.5234 135.133 51.4118 138.042 44.3002C138.257 43.7614 138.473 43.5459 139.119 43.5459C141.705 43.5459 141.705 43.5459 142.675 45.9164C145.261 52.4893 147.955 58.9544 150.541 65.5272C150.649 65.8505 150.864 66.066 150.972 66.2815V66.6047H150.864Z" fill="#08402E"/>
<path d="M73.8219 66.6041C73.7141 66.6041 73.7141 66.6041 73.6064 66.6041C70.3739 66.8196 70.3738 66.8196 68.5421 64.1258C65.4173 59.6002 62.2925 55.0747 59.1677 50.4413C58.9522 50.2258 58.7367 49.9026 58.4134 49.6871V66.4963H54.7499V43.7607C56.0429 43.7607 57.2282 43.7607 58.4134 43.7607C58.7367 43.7607 59.0599 44.084 59.1677 44.4072C62.6157 49.3638 65.956 54.3204 69.2963 59.277C69.5118 59.4925 69.6196 59.8157 70.0506 60.0312V43.8685H73.7141V66.6041H73.8219Z" fill="#08402E"/>
<path d="M95.3722 58.1994C94.1869 55.0746 93.0017 52.0576 91.8164 49.0406C91.7086 49.0406 91.7086 49.0406 91.6009 49.0406C90.4156 52.0576 89.2304 55.0746 88.0451 58.1994H95.3722ZM102.592 66.6041C101.406 66.6041 100.329 66.6041 99.2513 66.6041C98.928 66.6041 98.6047 66.2808 98.497 66.0653C97.9582 64.7723 97.4195 63.4793 96.9885 62.1863C96.773 61.7552 96.5575 61.5397 96.0187 61.5397C93.1094 61.5397 90.2001 61.5397 87.2908 61.5397C86.7521 61.5397 86.5366 61.7552 86.3211 62.1863C85.8901 63.4793 85.3513 64.6645 84.9203 65.9576C84.7048 66.4963 84.4893 66.6041 83.9505 66.6041C82.9808 66.6041 82.011 66.6041 80.8257 66.6041C80.9335 66.2808 81.0413 65.9576 81.149 65.742C83.9505 58.6304 86.8598 51.6266 89.6614 44.515C89.8769 43.8685 90.2001 43.7607 90.8466 43.7607C93.3249 43.7607 93.3249 43.7607 94.2947 46.1313C96.8807 52.7041 99.5745 59.1692 102.161 65.742C102.376 65.9576 102.484 66.2808 102.592 66.6041Z" fill="#08402E"/>
<path d="M105.609 43.7607C106.794 43.7607 107.871 43.7607 108.841 43.7607C109.488 43.7607 109.703 43.9762 109.919 44.515C111.643 49.2561 113.259 53.8894 114.983 58.5227C115.306 59.3847 115.629 60.2467 116.06 61.3242C117.138 58.4149 118.108 55.6134 119.077 52.9196C120.047 50.1181 121.125 47.4243 122.095 44.6227C122.31 44.084 122.526 43.7607 123.172 43.8685C124.142 43.9762 125.112 43.8685 126.297 43.8685C126.189 44.1917 126.081 44.515 125.974 44.7305C123.388 51.7343 120.694 58.846 118.108 65.8498C117.892 66.4963 117.569 66.8196 116.815 66.7118C115.953 66.6041 114.875 66.9273 114.336 66.4963C113.798 66.0653 113.582 64.9878 113.259 64.2335C110.781 57.7684 108.41 51.3033 105.932 44.946C105.824 44.515 105.716 44.1917 105.609 43.7607Z" fill="#08402E"/>
</svg>
