<svg width="210" height="72" viewBox="0 0 210 72" fill="none" xmlns="http://www.w3.org/2000/svg">
<path d="M196.85 67.4263C199.035 67.4263 200.909 67.4263 202.939 67.4263C203.875 67.4263 204.812 67.114 204.812 66.0211C204.968 64.772 203.875 64.4598 202.939 64.4598C201.533 64.4598 200.128 64.4598 198.879 64.4598C196.693 64.4598 196.693 64.4598 196.693 66.6456C196.693 66.8017 196.693 66.9579 196.85 67.4263ZM209.652 67.7385C209.184 69.7682 207.779 71.0173 205.593 71.0173C201.065 71.1734 196.537 71.0173 192.009 71.0173C192.009 70.5489 191.853 70.2366 191.853 69.9244C191.853 65.5527 191.853 61.0249 191.853 56.6532C191.853 55.7164 192.166 55.248 193.102 55.248C196.537 55.248 196.537 55.248 196.537 58.6829C196.537 60.7126 196.537 60.7126 198.411 60.7126C200.597 60.7126 202.782 60.7126 204.968 60.7126C207.154 60.7126 208.872 61.4933 209.496 63.8352V67.7385H209.652Z" fill="black"/>
<path d="M161.096 64.772C162.813 64.772 164.218 64.772 165.623 64.772C166.56 64.772 167.185 64.1475 167.029 63.2107C166.872 62.5862 166.248 61.8055 165.936 61.6494C164.374 61.4933 162.813 61.6494 161.096 61.6494V64.772ZM156.099 61.6494C154.538 61.6494 152.977 61.6494 151.416 61.6494C150.479 61.6494 149.854 62.2739 150.01 63.2107C150.167 63.8352 150.791 64.6159 151.259 64.772C152.821 64.9282 154.382 64.772 156.099 64.772V61.6494ZM155.943 58.2145C156.568 55.248 156.568 55.248 159.534 55.248C159.847 55.248 160.315 55.248 160.783 55.248C160.783 56.1848 160.94 56.9655 160.94 58.0584C163.125 58.0584 165.155 58.0584 167.185 58.0584C170.464 58.0584 172.181 59.7758 172.181 62.8985C172.181 66.0211 170.464 67.7385 167.185 67.7385C165.155 67.7385 163.125 67.7385 160.94 67.7385C160.94 68.8314 160.783 69.7682 160.783 70.705H156.099C156.099 69.7682 155.943 68.8314 155.943 67.7385C155.319 67.7385 154.694 67.7385 153.914 67.5824C152.352 67.5824 150.635 67.5824 149.074 67.5824C146.107 67.4263 144.39 65.5527 144.39 62.5862C144.39 59.6197 146.263 57.9023 149.23 57.7461C151.572 58.2145 153.758 58.2145 155.943 58.2145Z" fill="black"/>
<path d="M21.983 52.9078C21.983 47.4432 21.983 42.1348 21.983 36.6702C21.983 34.6405 22.1392 34.4844 24.0127 34.4844C27.916 34.4844 27.916 34.4844 27.916 38.3876C27.916 48.5362 27.916 58.6847 27.916 68.8332C27.916 70.2384 27.6037 71.019 26.0424 70.7068C25.2618 70.5506 24.4811 70.5506 23.7005 70.7068C22.2953 70.8629 21.8269 70.2384 21.8269 68.8332C21.983 63.6809 21.983 58.2163 21.983 52.9078Z" fill="#FFCD27"/>
<path d="M142.985 65.0843H130.026C130.026 66.9579 130.65 67.4263 132.524 67.4263C135.334 67.4263 138.301 67.4263 141.111 67.4263C141.579 67.4263 142.204 67.4263 142.828 67.4263V70.8611L142.672 71.0173C138.145 71.0173 133.617 71.1734 129.089 71.0173C126.435 70.8611 125.186 69.6121 125.186 66.9579C125.03 64.3036 125.186 61.6494 125.186 58.9952C125.342 56.9655 126.435 55.8726 128.464 55.5603C129.557 55.4042 130.806 55.4042 132.055 55.248C135.022 55.248 137.832 55.248 140.799 55.248C143.141 55.248 143.609 56.0287 142.985 58.2145C142.828 58.5268 142.204 58.8391 141.736 58.8391C138.769 58.8391 135.803 58.8391 132.68 58.8391C130.806 58.8391 130.338 59.3074 130.182 61.0249C130.806 61.0249 131.275 61.181 131.899 61.181C135.022 61.181 138.145 61.181 141.267 61.181C143.141 61.181 143.141 61.181 143.141 63.0546C142.985 63.8352 142.985 64.3036 142.985 65.0843Z" fill="black"/>
<path d="M73.0378 59.1496C72.4132 59.1496 71.7887 59.1496 71.3203 59.1496C69.4468 59.3058 68.9784 59.7742 68.8222 61.6477C68.8222 62.8968 68.8222 63.9897 68.8222 65.2388C68.8222 66.6439 69.6029 67.2684 70.8519 67.4246C71.3203 67.4246 71.9449 67.4246 72.4132 67.4246C76.7849 67.4246 76.941 67.2685 76.7849 63.0529C76.941 59.3058 76.6288 59.1496 73.0378 59.1496ZM72.8816 71.0156C71.3203 71.0156 69.759 71.0156 68.3538 71.0156C65.3874 70.8595 63.9822 69.4543 63.9822 66.6439C63.9822 64.302 63.9822 61.96 63.9822 59.7742C64.1383 57.2761 65.2312 55.8709 67.7293 55.7148C71.3203 55.5586 74.9113 55.5586 78.6585 55.7148C80.6882 55.8709 81.7811 57.1199 81.7811 59.1496C81.9372 61.8039 81.9372 64.302 81.7811 66.9562C81.625 69.7665 80.2198 71.0156 77.4094 71.1717C75.692 71.1717 74.2868 71.0156 72.8816 71.0156Z" fill="black"/>
<path d="M28.0721 0.758668V33.2339H21.983C21.983 32.7655 21.8269 32.141 21.8269 31.6726C21.8269 21.8363 21.8269 12.1562 21.8269 2.31998C21.8269 1.07093 22.1392 0.602539 23.5443 0.602539C24.9495 0.75867 26.5108 0.758668 28.0721 0.758668Z" fill="black"/>
<path d="M14.8009 39.7918V7.47266C16.6745 7.47266 18.3919 7.47266 20.1094 7.47266C20.4216 7.47266 20.89 8.09718 20.89 8.56557C21.0461 9.81462 20.89 11.2198 20.89 12.4688C20.89 20.7438 20.89 29.1749 20.89 37.4498C20.89 39.6356 20.89 39.6356 18.7042 39.6356C17.4551 39.7918 16.2061 39.7918 14.8009 39.7918Z" fill="black"/>
<path d="M35.2541 7.62891H29.3211V39.7919H35.2541V7.62891Z" fill="black"/>
<path d="M13.0835 48.6924C11.3661 46.8189 9.64866 45.1014 8.08735 43.2278C7.77509 42.9156 7.61896 42.4472 7.61896 41.9788C7.61896 32.9232 7.61896 23.8676 7.61896 14.812C7.61896 14.6559 7.61896 14.4998 7.77509 14.1875C9.49253 14.1875 11.3661 14.1875 13.2397 14.1875C13.3958 14.1875 13.7081 15.1243 13.7081 15.5927C13.7081 20.2766 13.7081 24.9605 13.7081 29.6445C13.7081 35.4213 13.7081 41.042 13.7081 46.8189C13.7081 47.2873 13.7081 47.9118 13.7081 48.3802C13.5519 48.5363 13.3958 48.5363 13.0835 48.6924Z" fill="black"/>
<path d="M36.503 14.1875C38.3766 14.1875 40.094 14.1875 41.8114 14.1875C42.9044 14.1875 42.7482 14.9682 42.7482 15.5927C42.7482 22.1502 42.7482 28.7077 42.7482 35.2652C42.7482 36.6704 42.5921 38.0755 42.7482 39.3246C43.0605 41.8227 42.1237 43.5401 40.2501 45.1014C39.0011 46.1943 38.0643 47.4434 37.1275 48.6924C36.9714 48.5363 36.8153 48.3802 36.6591 48.3802V14.1875H36.503Z" fill="black"/>
<path d="M117.691 55.4042C119.096 55.4042 120.345 55.4042 121.594 55.4042C121.907 55.4042 122.531 55.8726 122.531 56.1848C122.531 61.0249 122.531 65.865 122.531 70.8611H117.691C117.691 69.2998 117.691 67.7385 117.691 66.3333C117.691 65.2404 117.379 64.9282 116.286 64.9282C114.412 64.9282 112.695 64.9282 110.821 64.9282C109.728 64.9282 109.416 65.3966 109.416 66.3333C109.416 67.8947 109.416 69.2998 109.416 70.8611H104.732V55.248C106.137 55.248 107.23 55.248 108.479 55.248C108.792 55.248 109.26 55.8726 109.416 56.1848C109.572 57.4339 109.416 58.6829 109.416 60.0881C109.416 60.8688 109.728 61.181 110.509 61.181C112.539 61.181 114.412 61.181 116.442 61.181C117.223 61.181 117.535 60.8688 117.535 59.932C117.535 58.6829 117.691 57.1216 117.691 55.4042Z" fill="black"/>
<path d="M101.922 61.6494C100.985 61.6494 100.048 61.6494 99.1117 61.6494C98.0188 61.6494 97.2381 61.6493 97.082 60.4003C97.082 59.9319 96.3013 59.4635 95.8329 59.4635C94.1155 59.3074 92.5542 59.3074 90.8367 59.4635C90.2122 59.6197 89.4316 60.4003 89.2754 61.0248C89.1193 62.5861 89.1193 64.1474 89.2754 65.7088C89.2754 66.8017 90.0561 67.4262 91.149 67.4262C92.5542 67.5823 93.9594 67.5823 95.3645 67.4262C96.3013 67.4262 96.9258 66.9578 97.2381 65.8649C97.3942 65.5526 98.0188 65.2404 98.4872 64.9281C98.6433 64.772 98.9555 64.9281 99.2678 64.9281C100.205 65.0842 101.61 64.3036 102.078 65.5526C102.703 67.2701 101.766 69.7682 100.205 70.3927C99.4239 70.7049 98.4871 71.0172 97.5504 71.0172C94.74 71.1733 91.9297 71.0172 89.1193 71.0172C85.8405 71.0172 84.4354 69.612 84.4354 66.1772C84.4354 63.9913 84.4354 61.9616 84.4354 59.7758C84.4354 56.9654 85.3722 55.7164 88.3386 55.4041C91.6174 55.0919 94.8961 55.0919 98.1749 55.4041C101.454 55.8725 102.547 57.9022 101.922 61.6494Z" fill="black"/>
<path d="M52.1161 59.1513C51.0232 59.1513 50.0864 58.9952 48.9935 59.1513C48.6813 59.1513 48.2129 59.932 48.2129 60.4004C48.2129 61.0249 48.5251 61.9617 48.8374 61.9617C50.8671 62.1178 53.0529 62.1178 55.0826 61.9617C55.551 61.9617 56.1755 61.0249 56.1755 60.4004C56.1755 60.0881 55.3949 59.3075 54.9265 59.1513C54.1458 58.9952 53.0529 59.1513 52.1161 59.1513ZM48.2129 65.7088V70.8611H43.3728C43.3728 69.6121 43.3728 68.5192 43.3728 67.4263C43.3728 63.8352 43.3728 60.2442 43.3728 56.6532C43.3728 55.8726 43.3728 55.248 44.3096 55.248C48.6813 55.248 53.209 55.248 57.5807 55.5603C60.0788 55.7164 61.0156 57.1216 61.1717 59.6197C61.484 64.3036 60.2349 65.8649 55.0826 65.7088C52.8968 65.7088 50.711 65.7088 48.2129 65.7088Z" fill="black"/>
<path d="M14.957 55.8733C14.957 51.5017 14.957 47.13 14.957 42.7583C14.957 41.3531 15.4254 40.8847 16.8306 40.8847C17.6113 40.8847 18.2358 40.8847 19.0164 40.8847C20.4216 40.7286 20.89 41.3531 20.89 42.7583C20.89 51.5017 20.89 60.4011 20.89 69.1445C20.89 70.3935 20.5777 71.1742 19.1726 70.8619C18.7042 70.8619 18.2358 70.8619 17.7674 70.8619C14.8009 70.8619 15.1132 71.1741 15.1132 68.2077C14.957 64.1483 14.957 59.9327 14.957 55.8733Z" fill="#FFCD27"/>
<path d="M35.2541 56.1856C35.2541 60.5572 35.2541 64.9289 35.2541 69.3006C35.2541 70.5496 34.9418 71.018 33.5366 71.018C29.3211 71.018 29.3211 71.018 29.3211 66.8025C29.3211 58.8398 29.3211 50.721 29.3211 42.7583C29.3211 41.3531 29.7895 40.7286 31.1947 40.8847C35.7225 41.0409 35.098 40.2602 35.098 44.788C35.2541 48.5352 35.2541 52.2823 35.2541 56.1856Z" fill="#FFCD27"/>
<path d="M172.337 59.1514C171.869 55.4043 171.869 55.4043 175.304 55.4043C179.519 55.4043 183.891 55.4043 188.106 55.4043C189.98 55.4043 189.98 55.4043 189.98 57.434C189.98 57.9024 189.98 58.5269 189.98 59.3076C188.106 59.3076 186.389 59.3076 184.671 59.3076C183.579 59.3076 183.266 59.6198 183.266 60.7127C183.266 63.6792 183.266 66.4896 183.266 69.4561C183.266 70.0806 183.266 70.549 183.11 71.3296H178.426C178.426 70.549 178.426 69.6122 178.426 68.8316C178.426 66.1773 178.426 63.367 178.426 60.7127C178.426 59.776 178.114 59.3076 177.177 59.4637C175.616 59.1514 173.898 59.1514 172.337 59.1514Z" fill="black"/>
<path d="M49.7742 20.9004C49.7742 25.1159 49.618 29.0192 49.7742 32.9225C49.9303 35.5767 49.3058 37.6064 46.9638 39.0116C45.8709 39.7922 44.778 40.8851 43.5289 41.9781C43.5289 41.1974 43.3728 40.729 43.3728 40.2606C43.3728 34.3277 43.3728 28.3947 43.3728 22.6178C43.3728 21.2127 43.8412 20.9004 45.0902 20.9004C46.6516 21.0565 48.0567 20.9004 49.7742 20.9004Z" fill="black"/>
<path d="M6.52606 41.9781C4.49635 40.1045 2.62278 38.5432 0.749212 36.8257C0.593081 36.6696 0.436951 36.0451 0.436951 35.5767C0.436951 31.205 0.436951 26.6772 0.436951 22.3056C0.436951 21.2127 0.905343 20.9004 1.84213 20.9004C3.40344 20.9004 4.96475 20.9004 6.52606 20.9004V41.9781Z" fill="black"/>
</svg>
