<svg width="203" height="104" viewBox="0 0 203 104" fill="none" xmlns="http://www.w3.org/2000/svg">
<path d="M202.169 58.3244C201.901 58.3244 201.633 58.4585 201.231 58.4585C162.211 58.4585 123.326 58.4585 84.3066 58.4585C83.9044 58.4585 83.2339 58.7266 83.368 57.9221C83.368 57.788 83.6362 57.5199 83.9044 57.3858C84.0385 57.2517 84.3066 57.3858 84.5748 57.3858C123.46 57.3858 162.345 57.3858 201.231 57.3858C201.633 57.3858 201.901 57.3858 202.303 57.5199V58.3244H202.169Z" fill="#364A96"/>
<path d="M124.533 43.306C123.46 43.5742 123.46 43.5742 123.326 42.6356C122.79 39.1493 122.521 35.529 121.851 32.0427C120.51 24.6679 118.365 17.4272 114.342 10.8569C112.733 8.30928 110.99 6.16389 108.576 4.42075C104.42 1.47083 100.129 1.73901 96.2404 4.82301C93.0223 7.37067 90.8769 10.7228 89.1338 14.2091C86.8543 18.7681 85.2452 23.327 84.1725 28.1542C82.8317 33.9199 81.8931 39.6857 81.759 45.5855C81.6249 49.8763 81.4908 54.033 81.6249 58.3238C81.8931 62.6146 82.4294 66.9054 83.0998 71.1962C84.1725 77.9005 86.0498 84.3367 88.9997 90.3707C90.7428 93.7228 92.7541 96.9409 95.57 99.3545C97.7153 101.098 99.9948 102.304 102.811 102.17C104.956 102.036 106.833 101.232 108.576 100.025C111.66 97.7455 113.806 94.7955 115.549 91.4434C118.097 86.6162 119.84 81.5209 121.047 76.1574C121.181 75.3529 121.449 74.4143 121.583 73.6097C122.656 73.6097 122.79 73.7438 122.521 74.4143C121.315 79.7778 119.84 85.0072 117.426 89.9684C115.683 93.4547 113.672 96.6728 110.856 99.3545C108.442 101.634 105.626 103.109 102.14 103.109C99.3244 103.109 96.7767 101.902 94.6313 100.025C91.9496 97.7455 89.9383 94.7955 88.3292 91.7115C85.6475 86.6162 83.9044 81.1186 82.5635 75.487C81.4908 70.6598 80.8204 65.9668 80.4181 61.0056C80.284 57.9215 80.0158 54.7035 80.0158 51.6194C80.0158 45.9878 80.4181 40.4902 81.3567 34.8585C82.1612 30.0314 83.0998 25.3384 84.7089 20.6453C86.3179 15.6841 88.4633 10.991 91.6814 6.96841C93.6927 4.55484 95.9722 2.40945 99.0562 1.33675C102.542 0.129963 105.626 0.800399 108.576 2.67762C111.526 4.55484 113.538 7.23658 115.415 10.0524C117.963 14.3432 119.706 18.9022 121.181 23.7293C122.521 28.4224 123.46 33.2495 123.996 38.2107C124.265 40.222 124.399 41.697 124.533 43.306Z" fill="#364A96"/>
<path d="M92.8882 56.4467C93.6927 52.6923 92.8882 49.7424 89.2679 47.8652C94.8995 45.0493 100.397 42.2335 105.895 39.5518L106.029 39.6858C103.347 45.0493 100.665 50.4128 97.8494 56.0445C97.3131 54.5695 95.9722 53.8991 95.704 52.5582C95.5699 51.4855 95.1677 50.5469 94.7654 49.6083C94.6313 49.206 94.6313 48.9379 95.0336 48.6697C95.9722 47.9993 96.9108 47.1947 97.8494 46.5243C98.1176 46.3902 98.2517 46.122 98.5199 45.9879C97.9835 45.8539 94.4973 47.4629 93.4246 48.4015C93.5586 48.5356 93.6927 48.8038 93.6927 49.0719C94.4972 50.4128 94.8995 51.7537 95.0336 53.2286C95.0336 53.6309 94.8995 54.1673 94.6313 54.4354C93.9609 54.9718 93.4246 55.6422 92.8882 56.4467Z" fill="#364A96"/>
<path d="M1.03846 57.3848C1.30663 57.3848 1.57481 57.3848 1.84298 57.3848C26.7832 57.3848 51.7234 57.3848 76.5296 57.3848C76.6637 57.3848 76.6637 57.3848 76.7977 57.3848C77.2 57.3848 77.4682 57.3848 77.4682 57.9211C77.4682 58.3234 77.2 58.4575 76.7977 58.4575C76.6637 58.4575 76.5296 58.4575 76.3955 58.4575C51.4553 58.4575 26.6491 58.4575 1.7089 58.4575C0.904372 58.4575 0.904372 58.4575 1.03846 57.3848Z" fill="#364A96"/>
<path d="M119.84 53.9001C120.242 52.0229 120.644 50.2797 121.181 48.5366C121.315 48.0003 121.449 47.4639 121.583 46.9276C121.717 46.5253 121.851 46.2571 122.387 46.2571C123.326 46.2571 124.399 46.2571 125.337 46.2571C125.874 46.2571 126.142 46.3912 126.142 46.9276C126.142 47.598 126.142 48.4025 126.142 49.073C126.142 49.073 126.276 49.073 126.41 49.207C126.544 49.073 126.812 48.9389 126.812 48.6707C126.946 48.4025 127.08 48.1343 127.215 47.8662C128.153 45.8549 127.617 46.2571 129.896 46.123C130.701 46.123 131.505 46.123 132.444 46.123C132.176 47.4639 131.908 48.6707 131.505 49.8775C131.237 50.9502 130.969 52.0229 130.701 53.0956C130.567 53.4978 130.433 53.6319 130.03 53.6319C129.36 53.6319 128.555 53.6319 127.751 53.6319C128.153 52.157 128.421 50.8161 128.69 49.4752C128.555 49.4752 128.555 49.4752 128.421 49.3411C127.885 50.4138 127.349 51.4865 126.812 52.5592C126.41 53.4978 125.605 53.9001 124.667 53.4978C124.533 53.4978 124.399 53.0956 124.399 52.9615C124.399 52.157 124.399 51.2184 124.399 50.4138C124.399 50.1457 124.399 49.7434 124.399 49.4752H124.265C124.131 49.7434 123.996 49.8775 123.996 50.1457C123.728 51.0843 123.594 52.0229 123.326 52.9615C123.192 53.4978 122.924 53.766 122.387 53.766C121.315 53.9001 120.644 53.9001 119.84 53.9001Z" fill="#364A96"/>
<path d="M149.473 63.8219C149.339 64.3583 149.205 65.0287 149.071 65.565C148.937 65.9673 148.937 66.2355 148.803 66.6377C148.668 67.9786 148.4 67.8445 147.194 67.8445C146.791 67.8445 146.255 67.8445 145.719 67.8445C145.853 66.9059 146.121 66.1014 146.255 65.431C146.657 63.956 147.059 62.481 147.328 61.1402C147.462 60.6038 147.596 60.4697 148.132 60.4697C149.071 60.4697 150.143 60.4697 151.082 60.4697C151.618 60.4697 151.887 60.6038 151.887 61.1402C151.887 61.9447 151.887 62.6151 151.887 63.4197C152.021 63.4197 152.021 63.4196 152.155 63.5537C152.289 63.2856 152.557 63.1515 152.557 62.8833C152.825 62.2129 153.093 61.6765 153.496 61.0061C153.63 60.872 153.764 60.4697 154.032 60.4697C155.373 60.4697 156.714 60.4697 158.189 60.4697C157.786 61.9447 157.518 63.2856 157.25 64.4923C156.982 65.431 156.848 66.2355 156.58 67.1741C156.446 67.5763 156.177 67.8445 155.775 67.8445C155.105 67.8445 154.434 67.8445 153.63 67.8445C153.898 66.3696 154.3 65.1628 154.568 63.8219C154.434 63.8219 154.434 63.8219 154.3 63.6878C154.166 63.956 153.898 64.2242 153.764 64.6264C153.362 65.565 152.959 66.3696 152.423 67.3082C152.155 67.8445 151.216 68.1127 150.546 67.7104C150.278 67.5764 150.278 67.1741 150.143 66.7718C150.009 65.8332 150.009 64.8946 150.009 63.956C149.741 63.8219 149.607 63.8219 149.473 63.8219Z" fill="#364A96"/>
<path d="M141.16 46.5246C140.623 48.8041 140.087 51.2177 139.416 53.4971C139.416 53.6312 139.148 53.8994 139.014 53.8994C138.076 53.8994 137.137 53.8994 136.064 53.8994C136.467 52.1563 136.869 50.4131 137.271 48.8041C137.405 48.4018 137.673 47.9996 137.003 47.8655C136.467 47.7314 136.198 48.1337 136.064 48.67C135.662 50.145 135.394 51.6199 134.992 53.0949C134.857 53.7653 134.589 54.0335 133.785 54.0335C133.114 53.8994 132.31 54.0335 131.371 54.0335C131.505 53.229 131.773 52.4244 131.908 51.754C132.31 50.145 132.578 48.67 133.114 47.195C133.114 46.9269 133.517 46.6587 133.651 46.6587C136.064 46.6587 138.344 46.6587 140.757 46.6587C141.025 46.3905 141.025 46.3905 141.16 46.5246Z" fill="#364A96"/>
<path d="M107.906 48.1331C107.772 47.999 107.504 47.5967 107.37 47.5967C107.101 47.5967 106.833 47.8649 106.699 47.999C106.565 48.1331 106.565 48.4013 106.565 48.5353C106.565 48.8035 106.699 49.0717 106.699 49.2058C106.967 49.0717 107.37 49.0717 107.638 48.8035C107.772 48.8035 107.772 48.5353 107.906 48.1331ZM105.626 52.4239C105.895 52.558 106.163 52.692 106.297 52.692C106.833 52.558 107.37 51.3512 107.235 50.8148C107.101 50.6807 106.833 50.4126 106.699 50.4126C106.565 50.4126 106.163 50.5467 106.163 50.6807C105.895 51.2171 105.761 51.7534 105.626 52.4239ZM109.381 50.0103C110.185 50.1444 110.588 50.6807 110.454 51.4853C110.185 52.558 109.917 53.6307 108.576 53.7647C106.431 53.7647 104.286 53.7647 102.006 53.7647C102.274 52.4239 102.677 51.083 102.945 49.7421C103.213 48.8035 103.481 47.7308 103.749 46.7922C103.749 46.6581 104.017 46.2559 104.286 46.2559C106.029 46.2559 107.906 46.3899 109.649 46.3899C110.32 46.3899 110.99 46.6581 110.99 47.5967C111.124 48.5353 110.722 49.0717 109.917 49.3399C109.783 49.3399 109.649 49.474 109.649 49.474C109.515 49.7421 109.515 49.8762 109.381 50.0103Z" fill="#364A96"/>
<path d="M124.935 62.0788C124.667 61.8106 124.533 61.5424 124.265 61.5424C123.996 61.5424 123.728 61.6765 123.594 61.9447C123.46 62.0788 123.46 62.347 123.46 62.6151C123.46 62.8833 123.46 63.0174 123.594 63.2856C123.862 63.2856 124.265 63.2856 124.399 63.1515C124.533 62.8833 124.667 62.4811 124.935 62.0788ZM124.265 64.8946C123.996 64.7605 123.862 64.3583 123.728 64.3583C123.46 64.3583 123.192 64.4924 123.058 64.7605C122.924 65.1628 122.79 65.5651 122.79 65.9673C122.79 66.2355 122.924 66.3696 122.924 66.6378C123.192 66.5037 123.594 66.6378 123.728 66.3696C123.862 65.9673 123.996 65.431 124.265 64.8946ZM126.276 63.6878C126.678 63.956 126.946 64.0901 127.08 64.2242C127.617 64.6265 127.349 65.1628 127.215 65.6991C126.946 67.1741 126.41 67.5764 124.935 67.5764C123.058 67.5764 121.315 67.5764 119.437 67.5764C119.035 67.5764 118.901 67.4423 118.901 67.04C119.437 65.0287 119.84 62.8833 120.376 60.872C120.51 60.4698 120.778 60.2016 121.181 60.3357C122.656 60.3357 124.131 60.3357 125.605 60.3357C125.874 60.3357 126.142 60.3357 126.276 60.4697C126.812 60.6038 127.617 60.7379 127.617 61.6765C127.617 62.7492 127.483 63.1515 126.41 63.5538C126.544 63.5538 126.544 63.5538 126.276 63.6878Z" fill="#364A96"/>
<path d="M137.137 60.3347C136.601 62.4801 136.198 64.4914 135.662 66.5027C135.394 67.7095 135.26 67.7095 133.919 67.7095C133.651 67.7095 133.383 67.7095 133.114 67.7095C132.578 67.7095 132.444 67.5754 132.578 67.0391C132.712 66.5027 132.846 66.1005 132.98 65.5641C132.98 65.296 132.98 65.1619 133.114 64.6255C132.846 64.8937 132.712 64.8937 132.578 65.0278C132.31 65.296 132.042 65.6982 131.908 65.9664C130.567 67.7095 130.567 67.7095 128.421 67.7095C127.885 67.7095 127.751 67.4414 127.885 67.0391C128.421 65.0278 128.824 63.1506 129.36 61.1393C129.494 60.6029 129.762 60.3347 130.299 60.3347C130.701 60.3347 131.237 60.3347 131.639 60.3347C132.176 60.3347 132.31 60.4688 132.176 61.0052C132.042 61.5415 131.908 62.212 131.773 62.7483C131.773 62.8824 131.773 63.0165 131.639 63.4187C132.042 63.1506 132.176 63.0165 132.31 62.7483C132.578 62.346 132.98 61.9438 133.248 61.5415C134.187 59.9325 135.662 60.3347 137.137 60.3347Z" fill="#364A96"/>
<path d="M144.11 52.4251C144.244 52.5592 144.512 52.9615 144.512 52.8274C144.78 52.6933 145.316 52.5592 145.316 52.2911C145.719 50.9502 145.987 49.6093 146.255 48.2684C146.255 48.0003 146.121 47.7321 145.987 47.4639C145.719 47.598 145.316 47.7321 145.316 47.8662C144.914 49.3411 144.646 50.8161 144.11 52.4251ZM146.389 46.123C147.194 46.2571 147.998 46.3912 148.668 46.6594C149.473 46.9276 149.741 47.4639 149.607 48.2684C149.339 49.4752 149.071 50.5479 148.803 51.6206C148.534 52.6933 147.864 53.3638 146.791 53.6319C145.182 54.0342 143.573 54.1683 141.964 53.6319C141.026 53.3638 140.757 52.9615 141.026 52.0229C141.294 50.682 141.562 49.3411 141.964 48.0003C142.232 47.1957 142.903 46.7935 143.707 46.5253C144.512 46.3912 145.45 46.2571 146.389 46.123Z" fill="#364A96"/>
<path d="M115.683 62.4807C115.549 62.4807 115.415 62.4807 115.281 62.4807C115.013 63.1511 114.61 63.8215 114.342 64.492C114.208 64.626 114.476 64.8942 114.476 65.1624C114.744 65.0283 115.281 65.0283 115.281 64.8942C115.549 64.0897 115.549 63.2852 115.683 62.4807ZM109.917 67.7101C110.722 65.8328 111.526 64.2238 112.331 62.6147C112.599 61.9443 112.867 61.2739 113.269 60.7375C113.404 60.4693 113.806 60.2012 114.074 60.2012C115.281 60.2012 116.488 60.2012 117.694 60.2012C118.231 60.2012 118.365 60.3353 118.365 60.8716C118.365 62.8829 118.365 64.8942 118.499 66.7714C118.499 67.4419 118.365 67.576 117.694 67.576C117.024 67.576 116.353 67.576 115.817 67.576C115.415 67.576 115.281 67.4419 115.281 67.0396C115.281 66.7714 115.013 66.3692 115.013 66.3692C114.61 66.3692 114.074 66.5033 113.94 66.6374C113.672 67.576 113.001 67.576 112.331 67.576C111.392 67.7101 110.722 67.7101 109.917 67.7101Z" fill="#364A96"/>
<path d="M162.211 62.6147C162.077 62.6147 161.943 62.6147 161.809 62.6147C161.541 63.2852 161.139 63.9556 161.004 64.626C161.004 64.7601 161.139 65.0283 161.139 65.2965C161.407 65.1624 161.943 65.1624 162.077 65.0283C162.211 64.0897 162.211 63.2852 162.211 62.6147ZM156.58 67.7101C157.384 65.9669 158.055 64.492 158.859 62.8829C159.127 62.2125 159.53 61.542 159.798 60.8716C159.932 60.3353 160.2 60.2012 160.736 60.2012C161.943 60.2012 163.15 60.2012 164.357 60.2012C164.759 60.2012 165.027 60.2012 165.027 60.7375C165.027 62.8829 165.161 65.0283 165.161 67.0396C165.161 67.1737 164.759 67.576 164.625 67.576C163.82 67.576 163.15 67.576 162.345 67.576C161.943 67.576 161.809 67.4419 161.809 67.0396C161.809 66.7714 161.541 66.3692 161.541 66.3692C161.139 66.3692 160.468 66.5033 160.468 66.6374C160.2 67.576 159.664 67.576 158.859 67.576C158.189 67.7101 157.518 67.7101 156.58 67.7101Z" fill="#364A96"/>
<path d="M145.182 64.8939C145.048 66.3688 144.378 67.3074 143.037 67.5756C141.428 67.9779 139.819 68.112 138.21 67.7097C137.271 67.4415 136.869 66.9052 137.003 65.8325C137.271 64.6257 137.539 63.4189 137.807 62.2121C138.076 61.0053 139.014 60.6031 140.087 60.3349C141.562 59.9326 142.903 59.9326 144.378 60.3349C145.853 60.6031 146.389 61.9439 145.584 63.1507C145.584 63.2848 145.316 63.4189 145.182 63.4189C144.244 63.4189 143.305 63.4189 142.232 63.4189C142.366 62.8826 142.5 62.4803 142.5 62.2121C142.5 61.9439 142.366 61.6758 142.232 61.4076C141.964 61.5417 141.428 61.5417 141.294 61.8099C141.026 62.078 141.026 62.6144 140.891 63.0166C140.623 63.9553 140.355 65.0279 140.221 65.9666C140.221 66.2347 140.355 66.5029 140.489 66.7711C140.757 66.637 141.16 66.5029 141.428 66.3688C141.428 64.7598 142.635 64.8939 143.573 65.028C144.244 64.8939 144.646 64.8939 145.182 64.8939Z" fill="#364A96"/>
<path d="M116.622 49.4726C116.756 48.9362 116.89 48.534 116.89 48.2658C116.89 47.9976 116.756 47.7294 116.622 47.4613C116.353 47.5953 115.817 47.7294 115.683 47.8635C115.281 49.3385 114.878 50.8134 114.61 52.1543C114.61 52.2884 114.744 52.6907 114.878 52.6907C115.147 52.6907 115.415 52.6906 115.549 52.5566C115.683 52.4225 115.951 52.0202 115.951 51.752C116.085 51.0816 116.353 50.8134 117.024 50.9475C117.56 50.9475 118.097 50.9475 118.633 50.9475C119.303 50.9475 119.437 51.0816 119.169 51.752C118.901 52.6907 118.231 53.3611 117.292 53.6293C115.549 54.1656 113.94 54.1656 112.197 53.6293C111.392 53.3611 110.99 52.8247 111.258 52.0202C111.526 50.8134 111.794 49.6066 112.063 48.2658C112.331 47.4613 112.867 46.9249 113.672 46.6567C115.549 45.9863 117.292 45.9863 119.169 46.5226C120.108 46.7908 120.51 48.3999 119.84 49.2044C119.706 49.3385 119.572 49.3385 119.572 49.3385C118.633 49.4726 117.694 49.4726 116.622 49.4726Z" fill="#364A96"/>
<path d="M55.4779 51.0829C55.4779 50.8147 55.4779 50.4125 55.4779 50.1443C55.612 49.742 55.0756 48.9375 56.0142 48.9375C57.0869 48.9375 56.5506 49.742 56.5506 50.1443C56.6847 50.6806 56.5506 51.3511 56.5506 51.8874C56.5506 52.4238 56.8188 52.6919 57.3551 52.6919C58.5619 52.6919 58.696 52.6919 58.696 51.3511C58.696 50.6806 58.696 50.0102 58.696 49.4739C58.696 49.0716 58.9642 48.9375 59.2323 48.9375C59.6346 48.9375 59.9028 49.0716 59.7687 49.4739C59.7687 50.1443 59.7687 50.8147 59.7687 51.3511C59.7687 51.8874 59.7687 52.2897 60.1709 52.826C60.4391 53.0942 60.305 53.7646 60.1709 54.301C60.1709 54.4351 59.7687 54.5692 59.6346 54.4351C59.3664 54.301 59.0982 54.1669 59.0982 54.0328C58.9642 53.4965 58.696 53.3624 58.2937 53.3624C57.4892 53.3624 56.6847 53.3624 55.8802 53.3624C55.4779 53.3624 55.2097 53.2283 55.2097 52.6919C55.4779 52.2897 55.4779 51.6192 55.4779 51.0829Z" fill="#364A96"/>
<path d="M22.3583 51.2183C22.3583 52.1569 23.0288 52.8273 23.6992 52.8273C24.5037 52.8273 25.0401 52.1569 25.0401 51.2183C25.0401 50.2796 24.5037 49.6092 23.6992 49.6092C23.0288 49.4751 22.3583 50.2796 22.3583 51.2183ZM23.6992 48.8047C25.3082 48.8047 26.2469 49.6092 26.2469 51.2183C26.2469 52.6932 25.3082 53.6318 23.5651 53.6318C21.9561 53.6318 21.0175 52.6932 21.0175 51.3523C21.1515 49.6092 22.0902 48.8047 23.6992 48.8047Z" fill="#364A96"/>
<path d="M62.9868 51.3507C63.389 50.6803 63.9254 50.0098 64.4617 49.3394C64.5958 49.0712 64.9981 48.9371 65.2662 48.803C66.0708 48.6689 66.2048 48.803 66.2048 49.6076C66.2048 50.5462 66.2048 51.4848 66.2048 52.4234C66.2048 52.8256 66.3389 53.2279 65.6685 53.2279C64.9981 53.2279 65.1321 52.6916 65.1321 52.4234C65.1321 51.887 65.1321 51.2166 65.1321 50.5462C64.9981 50.5462 64.9981 50.5462 64.864 50.4121C64.7299 50.5462 64.5958 50.6803 64.4617 50.8143C64.0595 51.4848 63.6572 52.0211 63.2549 52.6916C62.9868 53.2279 62.4504 53.2279 62.0481 53.0938C61.9141 52.9597 61.78 52.5575 61.78 52.2893C61.78 51.3507 61.78 50.4121 61.78 49.4735C61.78 49.0712 61.78 48.6689 62.3163 48.6689C62.9868 48.6689 62.8527 49.0712 62.8527 49.4735C62.8527 50.0098 62.8527 50.5462 62.8527 51.0825C62.8527 51.3507 62.8527 51.3507 62.9868 51.3507Z" fill="#364A96"/>
<path d="M69.8252 49.6079C69.2889 49.6079 68.7525 49.6079 68.7525 50.2784C68.7525 50.8147 69.2889 50.9488 69.6911 50.9488C70.2275 50.9488 70.4956 50.8147 70.4956 50.2784C70.6297 49.742 70.3616 49.6079 69.8252 49.6079ZM67.1435 53.2283C67.5457 52.826 67.8139 52.4238 68.0821 52.0215C68.3502 51.7533 68.2162 51.4851 67.948 51.0829C67.6798 50.6806 67.4116 50.1443 67.5457 49.742C67.6798 49.3397 68.2162 48.9375 68.6184 48.9375C69.4229 48.8034 70.3616 48.8034 71.1661 48.9375C71.3002 48.9375 71.5683 49.2057 71.7024 49.4738C71.7024 50.6806 71.7024 51.7533 71.7024 52.9601C71.7024 53.0942 71.3002 53.3624 71.1661 53.3624C71.032 53.3624 70.7638 53.0942 70.6297 52.9601C70.4956 52.5578 70.3616 52.1556 70.2275 51.7533C69.8252 52.0215 69.2889 52.1556 69.1548 52.5578C68.6184 53.2283 68.0821 53.6305 67.1435 53.2283Z" fill="#364A96"/>
<path d="M42.3373 51.2183L42.4714 51.0842C42.2032 50.6819 41.935 50.1456 41.6669 49.7433C41.2646 49.341 40.5942 49.4751 40.1919 49.8774C39.6555 50.2796 39.5215 51.4864 39.9237 52.0228C40.1919 52.5591 40.7282 52.8273 41.2646 52.6932C41.935 52.5591 42.3373 52.0228 42.3373 51.2183ZM40.9964 48.8047C42.6055 48.8047 43.5441 49.6092 43.5441 51.0842C43.5441 52.5591 42.6055 53.4977 40.9964 53.4977C39.3874 53.4977 38.4488 52.6932 38.4488 51.0842C38.4488 49.6092 39.3874 48.8047 40.9964 48.8047Z" fill="#364A96"/>
<path d="M32.683 51.217C32.683 50.6806 32.683 50.2784 32.683 49.742C32.683 49.2057 32.8171 48.9375 33.3535 48.9375C34.4262 48.9375 35.3648 48.9375 36.4375 48.9375C36.8397 48.9375 37.1079 49.0716 37.1079 49.6079C37.1079 50.6806 37.1079 51.7533 37.1079 52.826C37.1079 53.2283 36.9738 53.4965 36.5716 53.4965C36.0352 53.4965 36.0352 53.2283 36.0352 52.826C36.0352 52.0215 36.0352 51.217 36.0352 50.4125C36.0352 49.8761 35.7671 49.742 35.3648 49.742C35.2307 49.742 34.9625 49.742 34.8284 49.742C34.2921 49.742 33.8898 50.0102 34.0239 50.5465C34.0239 51.217 34.0239 51.8874 34.0239 52.4238C34.0239 52.826 34.2921 53.4965 33.4876 53.4965C32.683 53.4965 32.9512 52.9601 32.9512 52.5579C32.683 52.0215 32.683 51.6192 32.683 51.217Z" fill="#364A96"/>
<path d="M20.3471 53.2296C19.2744 53.6318 18.738 53.0955 18.2017 52.425C17.9335 52.0228 17.5312 51.8887 17.2631 51.4864C17.129 51.8887 17.129 52.291 16.9949 52.6932C16.9949 53.0955 16.8608 53.2296 16.4585 53.2296C16.0563 53.2296 15.9222 53.0955 15.9222 52.6932C15.9222 51.6205 15.9222 50.5478 15.9222 49.4751C15.9222 49.0729 16.0563 48.9388 16.4585 48.9388C16.9949 48.9388 16.9949 49.2069 16.9949 49.6092C16.9949 50.0115 17.129 50.4137 17.2631 50.6819C17.5312 50.4137 17.9335 50.1456 18.2017 49.7433C18.6039 49.2069 18.8721 48.8047 19.6766 48.8047C19.8107 48.8047 20.0789 49.0729 20.213 49.2069C20.0789 49.341 19.9448 49.6092 19.8107 49.7433C19.4084 50.1456 19.0062 50.4137 18.738 50.816C18.6039 50.9501 18.738 51.3523 18.8721 51.4864C19.4084 52.1569 19.9448 52.6932 20.3471 53.2296Z" fill="#364A96"/>
<path d="M51.9916 50.2786C51.8575 50.2786 51.7235 50.2786 51.7235 50.2786V51.6194C51.9916 51.6194 52.528 51.6194 52.528 51.4854C52.528 51.0831 52.3939 50.5467 51.9916 50.2786ZM49.444 53.3626C49.9803 52.0217 50.5167 50.6808 51.053 49.34C51.3212 48.8036 52.528 48.6695 52.6621 49.0718C53.3325 50.4127 53.8688 51.7535 54.4052 53.2285C53.7348 53.4967 53.3325 53.4967 53.0643 52.8262C52.7962 52.1558 51.053 52.1558 50.7848 52.8262C50.5167 53.4967 50.1144 53.3626 49.444 53.3626Z" fill="#364A96"/>
<path d="M46.494 51.0829C47.0303 51.0829 47.5667 50.9488 47.5667 50.2784C47.5667 49.6079 47.0303 49.6079 46.494 49.6079C45.8236 49.6079 45.9576 50.0102 45.9576 50.4125C45.9576 50.9488 46.0917 51.217 46.494 51.0829ZM44.7509 51.217C44.7509 50.6806 44.7509 50.0102 44.7509 49.4739C44.7509 49.0716 45.019 48.9375 45.4213 48.9375C46.0917 48.9375 46.7622 48.9375 47.4326 48.9375C48.3712 48.9375 48.9076 49.4738 48.9076 50.2784C48.9076 51.0829 48.3712 51.7533 47.5667 51.8874C47.4326 51.8874 47.1644 51.8874 47.0303 51.8874C46.3599 51.7533 46.0917 52.0215 46.0917 52.826C46.0917 53.2283 45.9576 53.4965 45.4213 53.4965C44.8849 53.4965 44.8849 53.2283 44.8849 52.826C44.7509 52.1556 44.7509 51.6192 44.7509 51.217Z" fill="#364A96"/>
<path d="M28.6604 50.4128C28.6604 50.815 28.6604 51.2173 29.1968 51.0832C29.7331 51.0832 30.2695 50.9491 30.2695 50.2787C30.2695 49.7423 29.7331 49.6083 29.3308 49.6083C28.7945 49.6083 28.6604 49.8764 28.6604 50.4128ZM27.5877 51.2173C27.5877 50.6809 27.5877 50.2787 27.5877 49.7423C27.5877 49.0719 27.8559 48.8037 28.3922 48.9378C28.9286 48.9378 29.599 48.9378 30.1354 48.9378C31.074 49.0719 31.4762 49.4742 31.6103 50.2787C31.6103 50.9491 31.074 51.6196 30.2695 51.8877C30.1354 51.8877 29.8672 51.8877 29.7331 51.8877C28.9286 51.7536 28.6604 52.0218 28.6604 52.8263C28.6604 53.2286 28.5263 53.3627 28.1241 53.3627C27.7218 53.3627 27.5877 53.0945 27.5877 52.6923C27.5877 52.29 27.5877 51.7536 27.5877 51.2173Z" fill="#364A96"/>
<path d="M87.5247 54.0328C88.8656 52.9601 90.2065 51.8874 91.8155 50.6807C92.0837 51.4852 92.2178 52.1556 92.4859 52.692C92.4859 52.8261 92.3519 53.0942 92.2178 53.0942C90.6087 53.4965 88.9997 53.7647 87.5247 54.0328C87.5247 54.1669 87.5247 54.0328 87.5247 54.0328Z" fill="#364A96"/>
</svg>
