<svg width="184" height="80" viewBox="0 0 184 80" fill="none" xmlns="http://www.w3.org/2000/svg">
<path d="M75.292 48.3987V47.0358C75.292 38.9946 75.292 30.9533 75.292 23.0484C75.292 22.6395 75.4283 21.958 75.5646 21.958C76.2461 21.8217 77.0638 21.958 77.7453 21.958C77.8816 21.958 77.8816 22.6395 77.8816 23.0484C77.8816 30.9533 77.8816 38.8583 77.8816 46.7632C77.8816 47.0358 77.8816 47.1721 77.8816 47.4447C77.7453 48.1261 78.1542 48.3987 78.8356 48.3987C79.2445 48.3987 79.7897 48.3987 80.1986 48.3987C113.863 48.3987 147.663 48.3987 181.327 48.3987C181.736 48.3987 182.69 48.3987 182.69 48.6713C182.827 49.3528 182.827 50.1705 182.827 50.852C182.827 50.9883 182.418 51.1246 182.281 51.1246C181.873 51.1246 181.327 51.1246 180.919 51.1246C147.118 51.1246 113.318 51.1246 79.5171 51.1246C78.0179 51.1246 78.0179 51.1246 78.0179 52.6238C78.0179 60.8013 78.0179 69.1151 78.0179 77.2927C78.0179 77.7015 77.8816 78.383 77.609 78.5193C76.9275 78.6556 76.1098 78.5193 75.4283 78.5193C75.292 78.5193 75.292 77.8378 75.292 77.429C75.292 69.2514 75.292 60.9376 75.292 52.7601C75.292 51.1246 75.5646 51.2609 73.7928 51.2609C66.5693 51.2609 59.3459 51.2609 51.9861 51.2609C51.5772 51.2609 50.7594 51.1246 50.6232 50.9883C50.4869 50.3068 50.4869 49.4891 50.6232 48.8076C50.6232 48.6713 51.3046 48.535 51.7135 48.535C58.8007 48.535 65.7516 48.535 72.8388 48.535C73.5202 48.3987 74.338 48.3987 75.292 48.3987Z" fill="#A30024"/>
<path d="M76.7913 0.834961C77.3364 1.38013 77.8816 1.9253 78.2905 2.47047C52.9401 28.0934 27.4535 53.4437 1.96687 79.0667C1.4217 78.5215 0.876529 77.9763 0.33136 77.4312C25.818 51.9445 51.3046 26.4579 76.7913 0.834961Z" fill="#A30024"/>
<path d="M147.799 29.046C149.708 27.4105 151.07 27.5468 152.433 29.1823C153.251 28.7734 153.933 28.2282 154.75 27.9556C155.977 27.5467 157.067 28.2282 157.476 29.4548C157.749 30.2726 157.885 31.2266 157.885 32.1807C157.885 34.2251 157.885 36.4057 157.885 38.4501C157.885 39.1316 157.749 39.5405 156.931 39.5405C156.113 39.5405 155.977 39.2679 155.977 38.4501C155.977 36.4057 155.977 34.3614 155.977 32.317C155.977 31.6355 155.841 31.0904 155.704 30.4089C155.296 29.3186 154.069 29.046 153.524 30C153.115 30.5452 152.979 31.2266 152.979 31.7718C152.842 33.9525 152.979 36.1332 152.979 38.3138C152.979 39.1316 152.706 39.4042 151.888 39.4042C151.07 39.4042 150.934 38.9953 150.934 38.3138C150.934 36.1332 150.934 33.9525 150.934 31.7718C150.934 31.3629 150.934 30.9541 150.798 30.6815C150.525 30.2726 150.116 29.5911 149.708 29.5911C149.162 29.5911 148.481 30 148.208 30.4089C147.936 30.8178 147.799 31.4992 147.799 32.0444C147.799 34.2251 147.799 36.2695 147.799 38.4501C147.799 39.1316 147.663 39.4042 146.845 39.4042C146.164 39.4042 145.755 39.2679 145.755 38.4501C145.755 35.1791 145.619 31.9081 145.619 28.6371C145.619 28.3645 145.891 27.9556 146.164 27.8193C147.391 27.9556 147.527 28.0919 147.799 29.046Z" fill="black"/>
<path d="M89.6027 37.9063C91.1019 38.1789 92.3285 37.4975 92.8737 36.2708C94.2366 33.2724 94.2366 30.1377 93.01 27.003C92.6011 26.0489 91.7833 25.5038 90.5567 25.3675C89.739 25.2312 89.3301 25.5037 89.3301 26.4578C89.3301 30.0014 89.3301 33.545 89.3301 37.0886C89.6027 37.2249 89.6027 37.4975 89.6027 37.9063ZM87.5583 31.5006C87.5583 29.3199 87.5583 27.1393 87.5583 24.9586C87.5583 24.0045 87.9672 23.7319 88.7849 23.7319C92.8737 23.1868 95.1906 24.9586 95.8721 29.0473C96.281 31.228 96.1447 33.2724 95.4632 35.4531C94.5092 38.7241 91.5108 40.3596 88.2397 39.6781C87.5583 39.4056 87.5583 38.9967 87.5583 38.4515C87.5583 36.1345 87.5583 33.8176 87.5583 31.5006Z" fill="black"/>
<path d="M138.668 33.6799C138.532 33.6799 138.532 33.6799 138.668 33.6799C138.668 34.7702 138.668 35.7242 138.94 36.8146C139.077 37.496 139.622 38.1775 140.303 37.9049C140.849 37.7686 141.53 37.2235 141.666 36.6783C141.939 35.4517 142.075 34.0887 142.075 32.8621C142.075 32.0444 141.803 31.2266 141.53 30.4088C140.985 29.3185 139.758 29.3185 139.213 30.4088C138.941 30.8177 138.804 31.3629 138.804 31.7718C138.532 32.4532 138.668 32.9984 138.668 33.6799ZM138.395 29.1822C138.668 28.9096 138.804 28.7733 139.077 28.637C140.303 27.5467 141.939 27.683 142.893 29.0459C143.438 29.7274 143.711 30.6814 143.983 31.6355C144.392 33.6799 144.392 35.5879 143.574 37.496C143.166 38.4501 142.484 39.2678 141.53 39.5404C140.576 39.813 139.758 39.6767 138.804 38.7227C138.804 40.3582 138.804 41.5848 138.804 42.9477C138.804 43.7655 138.532 43.9018 137.714 43.9018C137.032 43.9018 136.76 43.6292 136.76 42.9477C136.76 40.2219 136.76 37.496 136.76 34.9065C136.76 32.9984 136.76 31.2266 136.76 29.3185C136.76 28.9096 136.351 28.2282 137.305 28.0919C137.85 27.9556 138.395 28.0919 138.395 29.1822Z" fill="black"/>
<path d="M92.0561 5.87752C91.6472 8.33077 91.1021 10.5114 90.6932 12.8284H93.419C92.8739 10.5114 92.465 8.33077 92.0561 5.87752ZM87.4222 19.0979C87.6948 17.5986 88.1036 16.2357 88.3762 14.8728C89.194 11.4655 90.0117 8.05819 90.6932 4.65088C90.8295 3.83313 91.1021 3.56055 92.0561 3.56055C92.8739 3.56055 93.1464 3.96942 93.2827 4.65088C94.2368 9.14853 95.3271 13.7825 96.2812 18.2801C96.2812 18.5527 96.4175 18.9616 96.4175 19.2341C94.782 19.643 94.6457 19.5067 94.3731 18.1438C94.2368 17.4624 93.9642 16.6446 93.8279 15.9631C93.6916 14.8728 93.1465 14.7365 92.3287 14.7365C89.8754 14.8728 90.4206 14.4639 89.8754 16.6446C89.7391 17.1898 89.6029 17.5986 89.6029 18.1438C89.3303 19.3704 89.194 19.3704 87.4222 19.0979Z" fill="black"/>
<path d="M103.505 8.05626C103.505 8.73772 103.505 9.55548 103.505 10.2369C103.505 11.191 103.777 11.3273 104.731 11.191C106.503 10.7821 107.457 9.01031 106.912 6.96593C106.503 5.603 105.549 4.92155 104.186 5.05784C103.913 5.05784 103.505 5.46671 103.505 5.7393C103.368 6.42076 103.505 7.23851 103.505 8.05626ZM103.505 12.9628V19.0959C103.096 19.0959 102.687 19.0959 102.414 19.2322C101.869 19.2322 101.596 18.9596 101.596 18.4145C101.596 17.0515 101.596 15.5523 101.596 14.1894C101.596 11.0547 101.596 7.78368 101.596 4.64896C101.596 3.9675 101.733 3.55862 102.55 3.55862C103.368 3.55862 104.322 3.42233 105.14 3.55862C107.593 3.83121 108.82 5.33042 108.956 7.78368C109.092 10.2369 107.73 12.2813 105.413 12.8265C104.867 12.6902 104.186 12.8265 103.505 12.9628Z" fill="black"/>
<path d="M170.833 28.7756C171.651 28.503 172.605 28.0941 173.422 27.9578C174.785 27.8215 175.876 28.9118 176.012 30.4111C176.148 32.3191 176.148 34.3635 176.148 36.2716C176.148 36.9531 176.148 37.6345 176.148 38.316C176.148 38.9975 176.012 39.4063 175.194 39.4063C174.24 39.4063 174.24 38.9975 174.24 38.316C174.24 36.2716 174.24 34.0909 174.24 32.0466C174.24 31.6377 174.24 31.0925 174.104 30.8199C173.831 30.4111 173.422 29.8659 173.013 29.5933C172.332 29.3207 171.787 29.8659 171.514 30.5473C171.378 31.0925 171.242 31.6377 171.242 32.1829C171.242 34.2272 171.242 36.4079 171.242 38.4523C171.242 39.1338 170.969 39.4063 170.288 39.4063C169.606 39.4063 169.197 39.27 169.197 38.4523C169.197 35.3176 169.197 32.3191 169.197 29.1844C169.197 28.7755 168.925 28.0941 169.606 27.9578C170.151 27.9578 170.833 27.9578 170.833 28.7756Z" fill="black"/>
<path d="M120.541 18.1449C120.132 18.4175 119.86 18.6901 119.723 18.8264C118.088 19.9167 116.18 19.2352 115.635 17.4634C115.362 16.6457 115.362 15.8279 115.226 15.0102C115.226 13.1021 115.226 11.194 115.226 9.14961C115.226 8.46815 114.953 7.65039 116.18 7.65039C117.406 7.65039 117.134 8.33185 117.134 9.01331C117.134 10.7851 117.134 12.4206 117.134 14.1924C117.134 14.7376 117.134 15.2828 117.134 15.8279C117.27 16.9183 117.679 17.5997 118.497 17.5997C119.314 17.5997 119.996 16.782 120.132 15.8279C120.132 15.419 120.132 15.0102 120.132 14.6013C120.132 12.6932 120.132 10.6488 120.132 8.74073C120.132 7.92297 120.541 7.78669 121.223 7.78669C121.904 7.78669 122.177 7.92297 122.177 8.74073C122.177 12.0117 122.177 15.2828 122.177 18.5538C122.177 18.8264 121.904 19.2352 121.631 19.2352C121.223 19.2352 120.541 19.3715 120.541 18.1449Z" fill="black"/>
<path d="M132.807 33.8186C132.671 32.7282 132.535 31.6379 132.126 30.6839C131.99 30.275 131.308 29.5935 130.899 29.5935C130.49 29.5935 129.809 30.1387 129.536 30.6839C128.719 32.7282 128.719 34.9089 129.536 37.0896C129.673 37.4985 130.49 38.1799 130.899 38.0436C131.308 38.0436 131.99 37.3622 132.126 36.9533C132.535 35.863 132.671 34.9089 132.807 33.8186ZM134.852 33.8186C134.579 35.0452 134.443 36.2718 133.898 37.4985C133.352 38.8614 132.262 39.6791 130.763 39.6791C129.264 39.6791 128.31 38.8614 127.764 37.4985C126.81 35.0452 126.81 32.7282 127.764 30.275C128.31 28.9121 129.4 27.958 131.035 27.958C132.535 27.958 133.625 28.9121 134.034 30.4113C134.443 31.3653 134.579 32.5919 134.852 33.8186Z" fill="black"/>
<path d="M119.451 32.4552C119.178 31.6375 119.178 30.8197 118.906 30.2745C118.36 29.1842 117.27 29.1842 116.725 30.2745C116.316 30.956 116.18 31.6375 115.907 32.5915H119.451V32.4552ZM116.043 33.9544C115.907 37.2254 117.134 38.3158 120.405 37.6343C121.086 38.7247 120.814 39.1335 119.587 39.4061C116.725 39.9513 114.953 38.7247 114.272 35.8625C113.863 34.0907 113.863 32.3189 114.544 30.6834C114.817 29.8657 115.226 29.1842 115.907 28.5027C117.406 27.0035 119.723 27.4124 120.541 29.3205C121.086 30.5471 121.086 31.91 121.222 33.1367C121.222 33.273 120.814 33.6818 120.541 33.6818C119.451 33.6818 118.36 33.6818 117.134 33.6818C116.725 33.9544 116.316 33.9544 116.043 33.9544Z" fill="black"/>
<path d="M99.4158 32.3195C99.8247 32.4558 99.8247 32.4558 99.961 32.4558C100.506 32.4558 101.051 32.4558 101.597 32.4558C102.959 32.4558 103.096 32.1832 102.687 30.9566C102.551 30.5477 102.414 30.2751 102.278 30.0025C101.733 29.1848 100.915 29.1848 100.37 30.0025C99.961 30.684 99.6884 31.5018 99.4158 32.3195ZM99.5521 33.955C99.4158 37.226 100.779 38.4527 103.777 37.6349C104.459 38.7253 104.322 38.9978 103.232 39.4067C100.506 40.0882 98.4618 38.8615 97.7803 36.1357C97.3714 34.3639 97.3714 32.4558 98.0529 30.8203C98.3255 30.0026 98.8707 29.0485 99.6884 28.5033C101.188 27.2767 103.232 27.8219 104.05 29.5937C104.459 30.684 104.595 31.9106 104.731 33.001C104.868 33.6824 104.595 33.955 103.777 33.955C102.414 33.955 101.051 33.955 99.5521 33.955Z" fill="black"/>
<path d="M161.838 32.4549H165.381C165.109 31.6371 164.972 30.8193 164.7 30.1379C164.155 29.1838 163.201 29.1838 162.655 30.1379C162.383 30.8193 162.11 31.6371 161.838 32.4549ZM162.11 34.0904C161.838 37.2251 163.064 38.1791 166.472 37.7702C167.017 38.9969 166.88 39.2695 165.654 39.542C162.792 40.0872 161.02 38.8606 160.475 36.1347C160.066 34.2266 160.066 32.3186 160.884 30.4105C161.156 29.729 161.701 29.0475 162.246 28.6387C163.746 27.412 165.926 27.8209 166.608 29.5927C167.153 30.8193 167.153 32.1823 167.289 33.5452C167.289 33.6815 166.744 34.0904 166.472 34.0904C165.109 34.0904 163.746 34.0904 162.383 34.0904C162.246 34.0904 162.11 34.0904 162.11 34.0904Z" fill="black"/>
<path d="M113.318 28.23C112.909 29.7293 112.636 31.0922 112.227 32.5914C111.682 34.6358 111.137 36.6802 110.592 38.8608C110.455 39.406 110.183 39.6786 109.638 39.5423C109.093 39.5423 108.684 39.5423 108.547 38.8608C107.73 35.4535 106.776 32.0462 105.822 28.5026C105.822 28.3663 105.822 28.3663 105.822 28.23C107.321 27.6849 107.73 27.9575 108.002 29.3204C108.547 31.6373 108.956 33.9543 109.638 36.5439C110.183 33.9543 110.728 31.7736 111.137 29.4567C111.41 27.9575 111.682 27.8212 113.318 28.23Z" fill="black"/>
<path d="M180.782 25.6406C180.782 25.9132 180.918 26.0495 180.918 26.3221C180.918 27.8213 180.918 27.8213 182.418 28.0939C182.69 28.0939 182.963 28.5028 182.963 28.9116C183.099 29.3205 182.963 29.5931 182.418 29.7294C180.918 29.8657 180.918 29.8657 180.918 31.3649C180.918 33.0004 180.918 34.4996 180.918 36.1351C180.918 37.498 181.055 37.6343 182.418 38.0432C182.69 38.1795 182.827 38.5884 182.827 38.861C182.827 39.1335 182.554 39.5424 182.281 39.5424C180.373 40.0876 179.147 38.9973 179.01 37.0892C178.874 35.0448 179.01 32.8641 179.01 30.8197C179.01 30.1383 179.01 29.5931 178.056 29.7294C177.92 29.7294 177.647 29.1842 177.647 28.9116C177.647 28.6391 177.92 28.2302 178.193 28.2302C178.738 28.0939 179.01 28.0939 179.01 27.4124C179.01 26.0495 179.147 25.7769 180.782 25.6406Z" fill="black"/>
<path d="M110.728 11.1927C110.728 8.73947 110.728 6.4225 110.728 3.96924C110.728 3.15149 111.001 3.0152 111.818 2.87891C112.636 2.87891 112.772 3.28778 112.772 3.96924C112.772 8.73947 112.772 13.5097 112.772 18.1436C112.772 18.9614 112.5 19.0977 111.818 19.0977C111.001 19.0977 110.864 18.8251 110.864 18.0073C110.728 15.8267 110.728 13.5097 110.728 11.1927Z" fill="black"/>
<path d="M128.855 9.55625C128.31 9.41996 127.901 9.28367 127.492 9.28367C126.947 9.41996 126.402 9.69255 126.129 9.96513C125.993 10.374 126.129 11.0555 126.402 11.4643C126.811 12.0095 127.492 12.4184 128.037 12.8273C129.536 14.0539 130.082 15.4168 129.673 17.0523C129.127 19.0967 125.993 20.0508 124.494 18.8241C124.221 18.5515 124.357 17.8701 124.357 17.1886C125.039 17.4612 125.311 17.5975 125.72 17.5975C126.538 17.8701 127.219 17.7338 127.765 17.0523C128.173 16.3709 128.173 15.2805 127.492 14.7354C126.947 14.1902 126.402 13.9176 125.72 13.3724C124.494 12.2821 124.085 11.0555 124.494 9.55625C125.175 7.78446 127.492 6.83041 129.127 7.92075C129.809 8.46592 128.991 9.01109 128.855 9.55625Z" fill="black"/>
<path d="M124.902 23.1875C124.902 23.5964 125.039 23.869 125.039 24.1415C125.039 29.0481 125.039 33.8183 125.039 38.7248C125.039 39.4063 124.902 39.6789 124.085 39.6789C123.403 39.6789 122.994 39.5426 122.994 38.7248C122.994 33.8183 122.994 29.0481 122.994 24.1415C123.131 22.6423 124.221 23.5964 124.902 23.1875Z" fill="black"/>
</svg>
