<svg width="181" height="58" viewBox="0 0 181 58" fill="none" xmlns="http://www.w3.org/2000/svg">
<path d="M93.3008 27.8949C90.3073 24.0033 84.021 22.5066 78.7824 24.602C73.5438 26.5478 70.2509 31.6367 70.7 37.1747C71.149 43.3113 74.5915 47.8016 80.1295 49.1486C85.2184 50.346 91.0557 48.5499 93.1512 45.2571C91.6544 43.7604 90.3073 42.4133 88.9603 41.0662C85.3681 44.0597 81.9256 44.3591 79.3811 41.6649C76.8366 39.1204 76.687 34.1812 79.2314 31.7864C80.1295 30.8884 81.4765 30.14 82.8236 29.9903C85.3681 29.3916 87.3138 30.589 88.9603 32.5348C90.457 30.8884 91.8041 29.3916 93.3008 27.8949ZM62.6176 56.9317C62.6176 56.333 62.6176 55.884 62.6176 55.435C62.6176 43.3113 62.6176 31.1877 62.6176 19.0641C62.6176 18.3157 62.9169 17.4176 63.3659 16.8189C67.7065 11.5803 72.047 6.34173 76.5373 1.10312C76.9863 0.654099 77.7347 0.205078 78.1837 0.205078C91.2054 0.205078 104.227 0.205078 117.249 0.205078C117.548 0.205078 117.847 0.205078 118.296 0.205078C118.296 0.803776 118.296 1.2528 118.296 1.8515C118.296 13.8255 118.296 25.7994 118.296 37.7734C118.296 38.6714 117.997 39.5695 117.398 40.3178C113.208 45.5564 109.017 50.7951 104.826 55.884C104.526 56.333 103.778 56.6324 103.329 56.6324C90.008 56.6324 76.8366 56.6324 63.5156 56.6324C63.3659 57.0814 63.0666 57.0814 62.6176 56.9317Z" fill="#E01C42"/>
<path d="M8.13601 48.7013C11.7282 49.1503 15.4701 47.0549 16.8171 43.7621C17.7152 41.5169 18.1642 39.1222 18.4635 36.877C18.7629 34.7816 18.7629 32.5365 18.9126 30.2913H24.7499V48.2523H30.7369C30.7369 47.9529 30.8865 47.8033 30.8865 47.6536C30.8865 40.1699 30.8865 32.8358 30.8865 25.3521C30.8865 24.1547 30.2878 24.1547 29.5395 24.1547C24.4505 24.1547 19.5113 24.1547 14.4223 24.1547C13.9733 24.1547 13.674 24.1547 13.0753 24.3044C13.0753 25.8011 13.2249 27.1482 13.0753 28.4953C12.9256 31.7881 12.6262 35.0809 12.1772 38.3738C11.8779 40.4692 10.6805 42.1156 8.58503 43.0137C8.28568 43.1634 7.98633 43.4627 7.98633 43.7621C8.13601 45.4085 8.13601 47.0549 8.13601 48.7013ZM0.652283 56.9334V55.4367C0.652283 43.313 0.652283 31.3391 0.652283 19.2154C0.652283 18.4671 0.951632 17.569 1.55033 16.9703C5.89089 11.7317 10.2315 6.4931 14.7217 1.25449C15.021 0.805467 15.7694 0.356445 16.2184 0.356445C29.3898 0.356445 42.5611 0.356445 55.7325 0.356445C56.0318 0.356445 56.1815 0.356445 56.4809 0.356445C56.4809 0.805469 56.4809 1.25449 56.4809 1.70352C56.4809 13.8272 56.4809 25.9508 56.4809 38.2241C56.4809 38.9725 56.1815 39.7208 55.7325 40.3195C51.5416 45.5581 47.3507 50.7968 43.1598 55.8857C42.7108 56.3347 42.1121 56.7837 41.5134 56.7837C28.0427 56.7837 14.7217 56.7837 1.25098 56.7837C1.25098 57.0831 1.10131 57.0831 0.652283 56.9334Z" fill="#E01C42"/>
<path d="M140.748 43.1611C142.993 43.0115 144.939 43.0115 147.034 42.7121C151.824 41.9638 155.116 38.0722 155.116 33.133C155.116 28.3434 152.273 25.0505 147.333 24.4518C144.939 24.1525 142.544 24.1525 139.999 24.1525C138.203 24.1525 136.407 24.1525 134.461 24.1525V48.6991H140.897V43.1611H140.748ZM124.433 56.9312C124.433 56.3325 124.433 55.8835 124.433 55.4345C124.433 43.3108 124.433 31.3369 124.433 19.2132C124.433 18.4648 124.733 17.5668 125.331 16.9681C129.672 11.7295 134.012 6.64056 138.353 1.40196C138.652 0.952933 139.401 0.503906 139.85 0.503906C153.021 0.503906 166.342 0.503906 179.513 0.503906C179.663 0.503906 179.813 0.503906 180.112 0.503906C180.112 0.95293 180.262 1.40196 180.262 1.85098C180.262 13.9746 180.262 26.0983 180.262 38.3716C180.262 38.9703 180.112 39.7186 179.663 40.1677C175.472 45.4063 171.281 50.6449 166.941 55.8835C166.492 56.3325 165.743 56.7815 165.145 56.7815C151.973 56.7815 138.652 56.7815 125.481 56.7815C125.182 57.0809 124.882 57.0809 124.433 56.9312Z" fill="#E01C42"/>
<path d="M140.897 30.1398C142.544 30.1398 144.19 29.9901 145.687 30.1398C147.633 30.4391 148.83 31.9359 148.68 33.8816C148.531 35.528 147.184 37.0248 145.238 37.1745C143.891 37.3241 142.394 37.1745 140.897 37.1745V30.1398Z" fill="#E01C42"/>
</svg>
