<svg width="196" height="65" viewBox="0 0 196 65" fill="none" xmlns="http://www.w3.org/2000/svg">
<path d="M79.5137 45.2549V60.0961H83.0694V48.1922H92.1906V60.0961H95.7463V45.2549H79.5137Z" fill="#99999C"/>
<path d="M97.9106 49.4307H101.157V57.6243H101.621L107.032 49.4307H111.979V60.0978H108.887V51.9042H108.423L103.167 60.0978H97.9106V49.4307Z" fill="#99999C"/>
<path d="M117.853 53.2956H119.09L122.646 49.4307H126.665L121.718 54.3777L127.129 60.0978H122.955L119.09 55.4599H117.853V60.0978H114.298V49.4307H117.853V53.2956Z" fill="#99999C"/>
<path d="M145.681 54.9957C145.681 59.0152 144.753 60.0974 140.27 60.0974H133.622C129.448 60.0974 128.211 58.8606 128.211 54.8411V50.667C128.211 46.3383 129.603 45.1016 133.932 45.1016H139.806C143.362 45.1016 145.526 46.1837 145.526 50.3578H141.971C141.971 48.8119 141.198 48.1935 139.188 48.1935H134.55C132.231 48.1935 131.613 48.6573 131.613 50.9762V54.6865C131.613 57.0055 132.386 57.3146 134.55 57.3146H139.188C141.352 57.3146 141.971 57.0055 141.971 55.1503H145.681V54.9957Z" fill="#99999C"/>
<path d="M156.193 51.9042H153.72C152.019 51.9042 151.246 52.5226 151.246 53.914V55.6145C151.246 57.0059 152.019 57.6243 153.72 57.6243H156.193C157.739 57.6243 158.512 57.0059 158.512 55.6145V53.914C158.512 52.6772 157.739 51.9042 156.193 51.9042ZM157.43 49.4307C160.522 49.4307 162.068 51.2858 162.068 53.6048V55.9237C162.068 58.3972 160.522 60.0978 157.43 60.0978H152.483C149.546 60.0978 147.845 58.3972 147.845 55.9237V53.7594C147.845 51.4404 149.391 49.5853 152.483 49.5853H157.43V49.4307Z" fill="#99999C"/>
<path d="M174.899 51.9029H169.643V53.9127C169.643 55.304 169.334 56.5408 168.561 57.623H174.899V51.9029ZM166.242 53.7581V49.584H178.455V57.7776H180.001V63.343H176.755V60.0965H166.86V63.343H163.614V57.7776H164.851C165.933 56.5408 166.242 55.304 166.242 53.7581Z" fill="#99999C"/>
<path d="M185.103 56.6967C185.103 57.6243 185.567 57.9334 186.803 57.9334H190.514C191.75 57.9334 192.214 57.6243 192.214 56.6967C192.214 55.7691 191.75 55.4599 190.514 55.4599H186.803C185.567 55.4599 185.103 55.7691 185.103 56.6967ZM181.702 52.5226C181.702 50.822 182.629 49.4307 186.03 49.4307H191.287C194.688 49.4307 195.77 51.1312 195.77 53.141V60.0978H192.214V58.861C191.596 59.634 191.287 60.0978 189.895 60.0978H185.103C182.938 60.0978 181.547 59.1702 181.547 57.4697V56.2329C181.547 54.5323 182.475 53.4502 185.876 53.4502H190.204C191.287 53.4502 191.75 53.7594 192.214 54.5323V53.141C192.214 52.0588 191.596 51.9042 190.204 51.9042H186.494C185.412 51.9042 185.103 52.0588 185.103 52.368V52.6772H181.702V52.5226Z" fill="#99999C"/>
<path d="M23.8591 16.4993L35.763 2.74023L47.5123 16.4993V30.1037L35.763 36.906L23.8591 30.1037V16.4993Z" fill="#EDEDF0"/>
<path d="M50.4497 62.5695L68.2282 59.1684L62.3536 42.0083L50.4497 35.2061L38.7004 42.0083V55.7673L50.4497 62.5695Z" fill="#C7E0F5"/>
<path d="M20.9218 62.5695L3.14328 59.1684L9.01793 42.0083L20.9218 35.2061L32.8257 42.0083V55.7673L20.9218 62.5695Z" fill="white"/>
<path d="M35.763 0.268555L34.5262 1.65992L22.6223 15.419L22.1585 15.8828V16.5011V30.1056V31.0332L22.9315 31.4969L34.8354 38.2992L35.1446 38.4538V39.9997L33.9078 40.7727L33.5986 40.6181L21.6947 33.8159L20.9218 33.3521L20.1488 33.8159L8.2449 40.6181L7.78111 40.9273L7.47192 41.5457L1.59727 58.5512L0.978882 60.4064L2.83403 60.7156L20.6126 64.1167L21.231 64.2713L21.6947 63.9621L33.5986 57.1599L34.3716 56.6961V55.7685V42.1641V41.8549L35.6084 41.0819H35.763L36.9998 41.8549V42.1641V55.7685V56.6961L37.7727 57.1599L49.6766 63.9621L50.1404 64.2713L50.7588 64.1167L68.5373 60.7156L70.3925 60.4064L69.7741 58.5512L63.8995 41.5457L63.7449 40.9273L63.2811 40.6181L51.3772 33.8159L50.4496 33.3521L49.6766 33.8159L37.7727 40.6181L37.4635 40.7727L36.2268 39.9997V38.4538H36.536L48.4399 31.6515L49.2128 31.1878V30.2602V16.6557V16.0373L48.7491 15.5736L36.9998 1.81451L35.763 0.268555ZM36.2268 5.83401L45.8117 16.8103L36.3814 22.3758V5.83401H36.2268ZM25.7142 16.8103L35.1446 5.83401V22.2212L25.7142 16.8103ZM25.5596 29.178V18.0471L35.1446 23.6126V34.7435L25.5596 29.178ZM36.2268 23.6126L45.8117 18.0471V29.178L36.2268 34.7435V23.6126ZM40.8647 42.6279L50.4496 37.0624L60.0346 42.6279L50.4496 48.1933L40.8647 42.6279ZM11.3368 42.6279L20.9218 37.0624L30.5067 42.6279L20.9218 48.1933L11.3368 42.6279ZM51.5318 48.8117L61.1167 43.4008L65.9092 57.1599L51.5318 48.8117ZM10.4092 43.4008L19.9942 48.8117L5.61676 57.1599L10.4092 43.4008ZM40.2463 54.8409V43.71L49.8312 49.2755V60.4064L40.2463 54.8409ZM21.5402 49.1209L31.1251 43.5554V54.6863L21.5402 60.2518V49.1209ZM51.068 49.7393L65.2908 57.9329L51.068 60.7156V49.7393ZM6.23515 58.0875L20.458 49.8939V60.8702L6.23515 58.0875Z" fill="#99999C"/>
</svg>
