<svg width="195" height="61" viewBox="0 0 195 61" fill="none" xmlns="http://www.w3.org/2000/svg">
<path d="M64.7734 23.917V12.3798H60.1285V23.917H57.4315V9.98242H67.4704V23.917H64.7734Z" fill="#2E2F3C"/>
<path d="M72.7145 23.917V9.98242H81.8544V12.5296H75.4115V15.8259H80.9554V18.2233H75.4115V21.6695H81.8544V24.2166H72.7145V23.917Z" fill="#2E2F3C"/>
<path d="M91.7434 12.3798V23.917H89.0464V12.3798H85.3006V9.98242H95.3395V12.3798H91.7434Z" fill="#2E2F3C"/>
<path d="M104.779 16.1256C105.978 16.1256 106.727 15.3764 106.727 14.1778C106.727 12.9791 105.978 12.2299 104.779 12.2299H102.232V15.9758H104.779V16.1256ZM104.929 9.98242C107.626 9.98242 109.574 11.7804 109.574 14.3276C109.574 16.8748 107.626 18.6728 104.929 18.6728H102.232V23.917H99.5348V9.98242H104.929Z" fill="#2E2F3C"/>
<path d="M120.212 12.9791C119.762 12.5296 119.163 12.2299 118.414 12.2299C117.665 12.2299 117.065 12.5296 116.616 12.9791C116.017 13.7283 115.867 14.9269 115.867 16.7249V17.4741C115.867 18.8226 115.867 20.1711 116.616 20.9203C117.065 21.3698 117.665 21.6695 118.414 21.6695C119.163 21.6695 119.762 21.3698 120.212 20.9203C120.811 20.3209 120.961 19.5718 120.961 16.8748C120.811 14.3276 120.661 13.7283 120.212 12.9791ZM123.658 17.4741C123.658 19.2721 123.658 21.0701 122.31 22.5685C121.411 23.6173 120.062 24.0668 118.564 24.0668C117.065 24.0668 115.717 23.6173 114.818 22.5685C113.469 21.2199 113.469 18.9724 113.469 17.6239V16.4253C113.469 13.5784 113.769 12.5296 114.818 11.4808C115.717 10.5818 117.065 9.98242 118.564 9.98242C120.062 9.98242 121.411 10.4319 122.31 11.4808C123.209 12.3798 123.658 13.8781 123.658 16.1256V17.4741Z" fill="#2E2F3C"/>
<path d="M132.948 24.0668C131.449 24.0668 130.101 23.4675 129.202 22.5685C127.853 21.2199 127.853 19.4219 127.853 17.0246C127.853 14.6273 127.853 12.9791 129.202 11.4808C130.101 10.5818 131.449 9.98242 132.948 9.98242C135.495 9.98242 137.593 11.4808 138.192 14.3276H135.495C135.195 13.2788 134.596 12.3798 133.098 12.3798C132.348 12.3798 131.749 12.6794 131.3 13.1289C130.85 13.7283 130.55 14.4774 130.55 17.0246C130.55 19.5718 130.7 20.3209 131.3 20.9203C131.599 21.3698 132.199 21.6695 133.098 21.6695C134.446 21.6695 135.195 20.9203 135.495 19.7216H138.192C137.593 22.5684 135.495 24.0668 132.948 24.0668Z" fill="#2E2F3C"/>
<path d="M147.482 12.3798V23.917H144.785V12.3798H141.189V9.98242H151.078V12.3798H147.482Z" fill="#2E2F3C"/>
<path d="M160.517 16.1256C161.716 16.1256 162.465 15.3764 162.465 14.1778C162.465 12.9791 161.716 12.2299 160.517 12.2299H157.97V15.9758H160.517V16.1256ZM160.667 9.98242C163.364 9.98242 165.312 11.7804 165.312 14.3276C165.312 16.8748 163.364 18.6728 160.667 18.6728H157.97V23.917H155.273V9.98242H160.667Z" fill="#2E2F3C"/>
<path d="M175.8 12.9791C175.351 12.5296 174.751 12.2299 174.002 12.2299C173.253 12.2299 172.654 12.5296 172.204 12.9791C171.605 13.7283 171.455 14.9269 171.455 16.7249V17.4741C171.455 18.8226 171.455 20.1711 172.204 20.9203C172.654 21.3698 173.253 21.6695 174.002 21.6695C174.751 21.6695 175.351 21.3698 175.8 20.9203C176.399 20.3209 176.549 19.5718 176.549 16.8748C176.549 14.3276 176.399 13.7283 175.8 12.9791ZM179.246 17.4741C179.246 19.2721 179.246 21.0701 177.898 22.5685C176.999 23.6173 175.65 24.0668 174.152 24.0668C172.654 24.0668 171.305 23.6173 170.406 22.5685C169.058 21.2199 169.058 19.1223 169.058 17.6239V16.4253C169.058 13.5784 169.357 12.5296 170.406 11.4808C171.305 10.5818 172.654 9.98242 174.152 9.98242C175.65 9.98242 176.999 10.4319 177.898 11.4808C178.797 12.3798 179.246 13.8781 179.246 16.1256V17.4741Z" fill="#2E2F3C"/>
<path d="M191.832 23.917V14.9269L186.438 23.917H183.891V9.98242H186.588V18.9724L191.982 9.98242H194.529V23.917H191.832Z" fill="#2E2F3C"/>
<path d="M58.1806 35.1536C57.5813 35.1536 57.1318 34.854 56.6823 34.5543C56.0829 33.955 56.0829 33.3556 56.0829 32.3068C56.0829 31.258 56.0829 30.5088 56.6823 30.0593C56.982 29.7596 57.5813 29.46 58.1806 29.46C59.2295 29.46 59.9786 30.0593 60.1285 31.258H59.2295C59.0796 30.6586 58.78 30.359 58.0308 30.359C57.7311 30.359 57.4315 30.5088 57.1318 30.6586C56.8321 30.9583 56.8321 31.258 56.8321 32.4566C56.8321 33.6553 56.982 33.8051 57.1318 34.2546C57.4315 34.5543 57.5813 34.5543 58.0308 34.5543C58.6301 34.5543 59.0796 34.2546 59.2295 33.6553H60.1285C60.1285 34.5543 59.2295 35.1536 58.1806 35.1536Z" fill="#CC4729"/>
<path d="M65.073 30.2091V35.1536H64.0242V30.2091H62.5258V29.46H66.5713V30.2091H65.073Z" fill="#CC4729"/>
<path d="M71.366 30.2091H70.1673V32.157H71.366C71.9653 32.157 72.4148 31.8573 72.4148 31.258C72.265 30.6586 71.9653 30.2091 71.366 30.2091ZM71.366 32.9061H70.0175V35.1536H69.1185V29.46H71.2161C72.265 29.46 73.0141 30.2091 73.0141 31.1081C73.164 32.157 72.4148 32.9061 71.366 32.9061Z" fill="#CC4729"/>
<path d="M78.7079 30.6588C78.4082 30.3591 78.2584 30.3591 77.8089 30.3591C77.5092 30.3591 77.2096 30.5089 76.9099 30.6588C76.6102 30.9584 76.6102 31.5578 76.6102 32.3069V32.7564C76.6102 33.3558 76.6102 33.8053 76.9099 34.1049C77.2096 34.4046 77.3594 34.4046 77.8089 34.4046C78.1086 34.4046 78.4082 34.2548 78.7079 34.1049C79.0076 33.8053 79.0076 33.3558 79.0076 32.3069C79.0076 31.2581 79.0076 30.9584 78.7079 30.6588ZM79.9066 32.4568C79.9066 33.3558 79.9066 34.1049 79.3072 34.7043C79.0076 35.0039 78.4082 35.3036 77.8089 35.3036C77.2096 35.3036 76.7601 35.0039 76.3106 34.7043C75.7112 34.1049 75.7112 33.3558 75.7112 32.6066V32.3069C75.7112 31.4079 75.8611 30.8086 76.3106 30.3591C76.6102 30.0594 77.2096 29.7598 77.8089 29.7598C78.4082 29.7598 78.8577 30.0594 79.3072 30.3591C79.7567 30.8086 79.9066 31.4079 79.9066 32.3069V32.4568Z" fill="#CC4729"/>
<path d="M86.1997 35.1532V31.1077L83.6525 35.1532H82.9033V29.6094H83.6525V33.6549L86.1997 29.6094H86.9488V35.1532H86.1997Z" fill="#CC4729"/>
<path d="M92.1929 30.2091V35.1536H91.2939V30.2091H89.6458V29.46H93.6913V30.2091H92.1929Z" fill="#CC4729"/>
<path d="M96.3884 35.1532V29.6094H100.134V30.3585H97.4372V32.0067H99.6847V32.7559H97.4372V34.404H100.134V35.1532H96.3884Z" fill="#CC4729"/>
<path d="M106.127 35.1536V30.359H104.479V32.157C104.479 34.5543 103.88 35.1536 102.831 35.1536H102.531V34.2546H102.681C103.281 34.2546 103.73 33.955 103.73 31.8573V29.46H107.026V35.1536H106.127Z" fill="#CC4729"/>
<path d="M112.121 32.4566H111.072V34.4045H112.271C112.87 34.4045 113.17 34.1048 113.17 33.5055C113.17 32.9061 112.72 32.4566 112.121 32.4566ZM112.271 35.1536H110.173V29.46H111.072V31.7075H112.421C113.469 31.7075 114.219 32.4566 114.219 33.5055C114.069 34.5543 113.32 35.1536 112.271 35.1536Z" fill="#CC4729"/>
<path d="M119.912 35.1532V32.7559H117.665V35.1532H116.915V29.6094H117.665V31.8569H119.912V29.6094H120.811V35.1532H119.912Z" fill="#CC4729"/>
<path d="M125.756 30.8085L124.857 33.2058H126.655L125.756 30.8085ZM127.254 35.1536L126.954 33.955H124.707L124.257 35.1536H123.358L125.456 29.46H126.205L128.153 35.1536H127.254Z" fill="#CC4729"/>
<path d="M133.547 30.2087H132.348C131.749 30.2087 131.449 30.5084 131.449 31.1077C131.449 31.707 131.749 32.0067 132.348 32.0067H133.547V30.2087ZM131.3 35.1532H130.251L131.449 32.7559C130.7 32.4562 130.401 31.8569 130.401 31.2575C130.401 30.2087 131.15 29.6094 132.199 29.6094H134.446V35.303H133.547V33.0555H132.498L131.3 35.1532Z" fill="#CC4729"/>
<path d="M141.338 35.1532V29.6094H142.237V32.3064L144.335 29.6094H145.384L143.286 32.3064L145.534 35.1532H144.485L142.237 32.3064V35.1532H141.338Z" fill="#CC4729"/>
<path d="M150.478 30.6588C150.179 30.3591 150.029 30.3591 149.579 30.3591C149.28 30.3591 148.98 30.5089 148.68 30.6588C148.381 30.9584 148.381 31.5578 148.381 32.3069V32.7564C148.381 33.3558 148.381 33.8053 148.68 34.1049C148.98 34.4046 149.13 34.4046 149.579 34.4046C149.879 34.4046 150.179 34.2548 150.478 34.1049C150.778 33.8053 150.778 33.3558 150.778 32.3069C150.778 31.2581 150.778 30.9584 150.478 30.6588ZM151.677 32.4568C151.677 33.3558 151.677 34.1049 151.078 34.7043C150.778 35.0039 150.179 35.3036 149.579 35.3036C148.98 35.3036 148.53 35.0039 148.081 34.7043C147.482 34.1049 147.482 33.3558 147.482 32.6066V32.3069C147.482 31.4079 147.631 30.8086 148.081 30.3591C148.381 30.0594 148.98 29.7598 149.579 29.7598C150.179 29.7598 150.628 30.0594 151.078 30.3591C151.527 30.8086 151.677 31.4079 151.677 32.3069V32.4568Z" fill="#CC4729"/>
<path d="M158.869 35.1532V31.4074L157.52 34.1044H156.921L155.573 31.4074V35.1532H154.823V29.6094H155.573L157.221 33.0555L158.869 29.6094H159.768V35.1532H158.869Z" fill="#CC4729"/>
<path d="M166.061 35.1532V30.3585H163.813V35.1532H162.914V29.6094H166.96V35.1532H166.061Z" fill="#CC4729"/>
<path d="M171.755 30.8085L170.856 33.2058H172.654L171.755 30.8085ZM173.403 35.1536L173.103 33.955H170.856L170.556 35.1536H169.507L171.605 29.46H172.354L174.302 35.1536H173.403Z" fill="#CC4729"/>
<path d="M179.996 35.1532V32.7559H177.748V35.1532H176.849V29.6094H177.748V31.8569H179.996V29.6094H180.745V35.1532H179.996Z" fill="#CC4729"/>
<path d="M187.337 35.1532V31.1077L184.79 35.1532H184.041V29.6094H184.79V33.6549L187.337 29.6094H188.087V35.1532H187.337Z" fill="#CC4729"/>
<path d="M194.23 30.2087H193.031C192.432 30.2087 192.132 30.5084 192.132 31.1077C192.132 31.707 192.432 32.0067 193.031 32.0067H194.23V30.2087ZM191.982 35.1532H190.933L192.132 32.7559C191.383 32.4562 191.083 31.8569 191.083 31.2575C191.083 30.2087 191.832 29.6094 192.881 29.6094H194.979V35.303H194.08V33.0555H193.031L191.982 35.1532Z" fill="#CC4729"/>
<path d="M185.989 2.3418H192.582L189.285 6.98665L185.989 2.3418Z" fill="#CC4729"/>
<path d="M23.2461 0.469308L17.1011 6.61426L38.8204 28.3335L44.9653 22.1885L23.2461 0.469308Z" fill="#C44D2B"/>
<path d="M23.0348 16.1186L7.77838 31.375L13.9233 37.52L29.1798 22.2635L23.0348 16.1186Z" fill="#2E2F3C"/>
<path d="M15.4443 8.45158L0.187866 23.708L6.33281 29.853L21.5892 14.5965L15.4443 8.45158Z" fill="#C44D2B"/>
<path d="M38.9099 31.7612L23.6534 47.0176L29.7984 53.1625L45.0548 37.9061L38.9099 31.7612Z" fill="#2E2F3C"/>
<path d="M30.9578 23.885L15.7036 39.1436L21.8494 45.2876L37.1036 30.0291L30.9578 23.885Z" fill="#C44D2B"/>
<path d="M6.44396 32.816L0.299011 38.9609L22.1242 60.7861L28.2691 54.6412L6.44396 32.816Z" fill="#2E2F3C"/>
</svg>
