<svg width="163" height="47" viewBox="0 0 163 47" fill="none" xmlns="http://www.w3.org/2000/svg">
<path d="M0 10.7031V35.8667H25.3852V27.604H21.9496V32.2987H3.62646V14.2711H21.9496V18.9658H25.3852V10.7031H0Z" fill="#6C7690"/>
<path d="M65.2764 35.8667H90.6616V32.2987H68.9028V24.975H80.5457V21.5948H68.9028V14.2711H90.6616V10.7031H65.2764V35.8667Z" fill="#6C7690"/>
<path d="M147.921 17.2766L152.693 25.3515H143.15L147.921 17.2766ZM132.843 35.8676H136.851L141.05 28.7316H154.793L158.992 35.8676H163L147.921 10.1406L132.843 35.8676Z" fill="#6C7690"/>
<path d="M97.9145 10.1406V35.8676H101.541V17.4644L113.375 26.8538L125.208 17.4644V35.8676H128.835V10.1406L113.375 22.3468L97.9145 10.1406Z" fill="#6C7690"/>
<path d="M53.4426 10.7031L36.2646 24.7872V10.7031H32.6381V36.4301H36.2646V29.4819L44.281 22.9093L54.206 35.8667H58.7868L46.9531 20.6559L59.1686 10.7031H53.4426Z" fill="#6C7690"/>
<path d="M80.9274 0H65.2764V3.56797H80.9274V0Z" fill="#6C7690"/>
<path d="M80.9274 43.0039H65.2764V46.5719H80.9274V43.0039Z" fill="#6C7690"/>
</svg>
