<svg width="706" height="1297" viewBox="0 0 706 1297" fill="none" xmlns="http://www.w3.org/2000/svg">
<rect x="652" y="6" width="396" height="1.99998" transform="rotate(90 652 6)" fill="#F7F7FA"/>
<rect x="700" y="7" width="99" height="1.99998" transform="rotate(-180 700 7)" fill="#F7F7FA"/>
<rect x="7" y="400" width="117" height="1.99999" transform="rotate(90 7 400)" fill="#F7F7FA"/>
<rect x="7" y="1113" width="92" height="1.99999" transform="rotate(90 7 1113)" fill="#F7F7FA"/>
<rect x="701" y="1205" width="92" height="1.99999" transform="rotate(90 701 1205)" fill="#F7F7FA"/>
<rect x="701" y="1207" width="696" height="1.99994" transform="rotate(-180 701 1207)" fill="#F7F7FA"/>
<rect x="652" y="402" width="647" height="1.99994" transform="rotate(-180 652 402)" fill="#F7F7FA"/>
<rect x="645" y="395" width="12" height="12" fill="#E4E6EE"/>
<rect x="645" width="12" height="12" fill="#E4E6EE"/>
<rect y="395" width="12" height="12" fill="#E4E6EE"/>
<rect y="1200" width="12" height="12" fill="#E4E6EE"/>
<rect x="694" y="1200" width="12" height="12" fill="#E4E6EE"/>
</svg>
