<svg width="20" height="25" viewBox="0 0 20 25" fill="none" xmlns="http://www.w3.org/2000/svg">
<path d="M10 13.9277C11.6569 13.9277 13 12.5846 13 10.9277C13 9.27088 11.6569 7.92773 10 7.92773C8.34315 7.92773 7 9.27088 7 10.9277C7 12.5846 8.34315 13.9277 10 13.9277Z" stroke="white" stroke-width="2" stroke-linecap="round" stroke-linejoin="round"/>
<path d="M19 10.9277C19 17.9277 10 23.9277 10 23.9277C10 23.9277 1 17.9277 1 10.9277C1 8.54079 1.94821 6.2516 3.63604 4.56377C5.32387 2.87595 7.61305 1.92773 10 1.92773C12.3869 1.92773 14.6761 2.87595 16.364 4.56377C18.0518 6.2516 19 8.54079 19 10.9277Z" stroke="white" stroke-width="2" stroke-linecap="round" stroke-linejoin="round"/>
</svg>
