<svg width="182" height="52" viewBox="0 0 182 52" fill="none" xmlns="http://www.w3.org/2000/svg">
<path d="M0 13.7041V38.8677H25.3852V30.605H21.9496V35.2997H3.62646V17.2721H21.9496V21.9668H25.3852V13.7041H0Z" fill="white"/>
<path d="M65.2764 38.8677H90.6616V35.2997H68.9028V27.976H80.5457V24.5958H68.9028V17.2721H90.6616V13.7041H65.2764V38.8677Z" fill="white"/>
<path d="M147.921 20.2766L152.693 28.3515H143.15L147.921 20.2766ZM132.843 38.8676H136.851L141.05 31.7316H154.793L158.992 38.8676H163L147.921 13.1406L132.843 38.8676Z" fill="white"/>
<path d="M97.9145 13.1406V38.8676H101.541V20.4644L113.375 29.8538L125.208 20.4644V38.8676H128.835V13.1406L113.375 25.3468L97.9145 13.1406Z" fill="white"/>
<path d="M53.4426 13.7041L36.2646 27.7882V13.7041H32.6381V39.4311H36.2646V32.4829L44.281 25.9103L54.206 38.8677H58.7868L46.9531 23.6569L59.1686 13.7041H53.4426Z" fill="white"/>
<path d="M80.9274 3H65.2764V6.56797H80.9274V3Z" fill="white"/>
<path d="M80.9274 46.0034H65.2764V49.5714H80.9274V46.0034Z" fill="white"/>
</svg>
