<svg width="415" height="119" viewBox="0 0 415 119" fill="none" xmlns="http://www.w3.org/2000/svg">
<path d="M0 27.2529V91.3198H64.6311V70.2829H55.8841V82.2357H9.23302V36.337H55.8841V48.2898H64.6311V27.2529H0Z" fill="#001B67"/>
<path d="M166.194 91.3198H230.826V82.2357H175.427V63.5893H205.07V54.9833H175.427V36.337H230.826V27.2529H166.194V91.3198Z" fill="#001B67"/>
<path d="M376.61 43.9866L388.759 64.5453H364.461L376.61 43.9866ZM338.22 91.3195H348.425L359.116 73.1513H394.104L404.795 91.3195H415L376.61 25.8184L338.22 91.3195Z" fill="#001B67"/>
<path d="M249.292 25.8184V91.3195H258.525V44.4647L288.653 68.3702L318.782 44.4647V91.3195H328.015V25.8184L288.653 56.8955L249.292 25.8184Z" fill="#001B67"/>
<path d="M136.066 27.2529L92.3302 63.1112V27.2529H83.0972V92.7541H92.3302V75.064L112.74 58.3301L138.009 91.3198H149.672L119.543 52.5928L150.644 27.2529H136.066Z" fill="#001B67"/>
<path d="M206.042 0H166.194V9.0841H206.042V0Z" fill="#001B67"/>
<path d="M206.042 109.487H166.194V118.571H206.042V109.487Z" fill="#001B67"/>
</svg>
